<?xml version="1.0" encoding="utf-8"?>
<!-- Generator: Adobe Illustrator 24.3.0, SVG Export Plug-In . SVG Version: 6.00 Build 0)  -->
<svg version="1.1" id="Layer_1" xmlns="http://www.w3.org/2000/svg" xmlns:xlink="http://www.w3.org/1999/xlink" x="0px" y="0px"
	 viewBox="0 0 612 792" style="enable-background:new 0 0 612 792;" xml:space="preserve">
<style type="text/css">
	.st0{fill:#FFFFFF;}
</style>
<g>
	<path class="st0" d="M392.1,446.6c-0.3,0.2-0.5,0.4-0.8,0.6l-0.3,0.4l-0.4,0.4c0.1,0.1,0.2,0.1,0.4,0.1h0.1c0.2,0,0.3,0,0.4-0.1
		l-0.4,2.7l-0.8,0.6l-0.9,0.5c-0.5,0.3-1,0.4-1.5,0.4h-0.5c-0.7-0.1-1.4-0.3-2.2-0.5l-2.2-0.9c-1.8-0.9-3.3-1.4-4.4-1.5h-0.4
		l-1.7-0.3c-0.3-0.2-0.7-0.3-1-0.3h-0.4l-2.8-0.1c-1.1,0-2.1-0.1-3-0.3c-2.1-0.3-3.7-0.8-4.8-1.7c-0.6,0.4-1.3,0.6-2.2,0.6
		c-0.4,0-0.9,0-1.3-0.1l-1.7-0.5l-1.5-0.5c-0.2-0.1-0.4-0.1-0.6-0.1c-0.3,0-0.5,0-0.8,0.1H356l-0.5,0.1h-0.3c-0.5,0-0.9-0.3-1.2-0.9
		l-1.4,0.8c-0.7-0.3-1.2-0.6-1.7-0.9h-1.8c-1.2,0-2.6,0-4.2-0.1l-3-0.3l-3-0.3c-1.2-0.1-2.4-0.1-3.5-0.1c-3.2,0-5.9,0.3-8.1,0.9
		c-0.2-0.3-0.5-0.4-0.9-0.5l-0.9-0.3c-0.9-0.2-1.3-0.4-1.4-0.8l-1.5,0.9c-1.3-0.3-2.7-0.4-4.4-0.4h-1.2c-1.3,0-3.2,0.1-5.7,0.4
		c-2.5,0.2-4.6,0.3-6.4,0.3c-1.7,0-3.1-0.1-4.2-0.3c0.3-0.3,0.8-0.5,1.3-0.5c0.2,0,0.4,0,0.6,0.1l0.9,0.1c0.3-0.1,0.6-0.3,0.9-0.5
		l0.3,0.1l0.1-0.1h-0.4c-0.3-0.3-0.6-0.4-1.2-0.4h-0.6l-0.8,0.1h-0.8c-0.8,0-1.3-0.2-1.7-0.6c0.8,0,1.4-0.3,1.8-0.9l0.5-0.6
		c0.3-0.2,0.5-0.3,0.8-0.4c0.1,0,0.1,0,0.1,0.1c0,0.1-0.1,0.2-0.4,0.3c-0.2,0.1-0.3,0.2-0.3,0.3c0,0.2,0.1,0.3,0.3,0.5
		c0.3,0.3,0.5,0.4,0.8,0.4c0.2,0,0.4-0.1,0.6-0.3l0.4-0.3l0.3-0.3c0.1-0.1,0.2-0.1,0.3-0.1h0.1c0.3,0.9,1.1,1.7,2.4,2.2
		c0.4,0.2,0.9,0.3,1.3,0.3c0.8,0,1.4-0.3,1.9-0.9c-0.1-0.1-0.3-0.1-0.5-0.1c-0.2,0-0.4,0-0.8,0.1l-0.8,0.3l-0.6,0.1
		c-0.1-0.3-0.2-0.5-0.4-0.6c-0.1-0.1-0.2-0.2-0.4-0.3c-0.3-0.1-0.4-0.2-0.4-0.3l0.1-0.1c0.4-0.1,0.9-0.1,1.4-0.1h2.7
		c1.5,0,2.7-0.5,3.9-1.5l1,1.8c0.3-0.1,0.5-0.3,0.5-0.5V442l-0.1-0.5c0-0.2,0.1-0.3,0.3-0.4c0.3,0.1,0.5,0.1,0.8,0.1
		c0.4,0,0.8-0.2,1-0.5c0.6,0.3,0.9,0.6,1,1.2c0.4-0.1,0.7-0.3,0.9-0.5l0.3-0.4l0.3-0.3c0.2,0.1,0.3,0.2,0.5,0.4l0.3,0.5
		c0.3,0.4,0.6,0.6,1,0.6h0.3c-0.3-0.5-0.4-0.9-0.4-1c0-0.3,0.1-0.4,0.3-0.4c0.2,0.4,0.5,0.8,0.9,1l0.4,0.4l0.5,0.4
		c0.8-0.1,1.6-0.3,2.6-0.6l1.3-0.5l1.2-0.4c0.7-0.3,1.3-0.4,1.9-0.4c1.1,0,2.1,0.3,3,1c0.7-0.4,1.3-0.6,1.8-0.6s0.9,0.2,1.2,0.5v0.3
		c0,0.3,0.2,0.6,0.6,0.6h0.8l0.6,0.1l-0.4-0.8c0-0.3,0.2-0.5,0.5-0.6l0.4,0.3l0.5,0.3c0.4,0.3,0.7,0.6,0.8,1c0.6-0.6,1.4-0.9,2.4-1
		l1.4-0.1c0.6,0,1.2,0,1.7-0.1c-0.1,0.3-0.1,0.5-0.1,0.6c0,0.4,0.2,0.8,0.5,1.2c0.3-0.1,0.4-0.2,0.5-0.4v-0.6
		c-0.1-0.2-0.1-0.3-0.1-0.4c0-0.3,0.1-0.4,0.4-0.5c0.3-0.2,0.6-0.3,0.9-0.3c0.5,0,1,0.2,1.5,0.5l0.9,0.6l1,0.6
		c-0.1-0.2-0.1-0.3-0.1-0.5v-0.3c0.1-0.3,0.3-0.4,0.6-0.4c0.3,0.2,0.8,0.3,1.4,0.3h1.9c1.1,0,1.9,0.2,2.4,0.6h-0.3
		c-0.2,0-0.4,0.1-0.8,0.3c0.3,0.3,0.6,0.4,1,0.4h0.4l0.9-0.3l0.8-0.3c0.6-0.2,1.1-0.3,1.5-0.3c0.8,0,1.4,0.3,1.8,0.8
		c-0.3,0.1-0.5,0.2-0.5,0.4c0,0.1,0,0.2,0.1,0.3c0.1,0,0.2,0,0.3-0.1c0.1-0.1,0.1-0.3,0.1-0.5c0.7-0.3,1.4-0.4,2.2-0.4
		c0.4,0,0.9,0,1.3,0.1c1.5,0.2,2.6,0.7,3.3,1.7c0.5-0.5,1.2-0.8,1.9-0.8h0.3c0.9,0,1.6,0.4,2.2,1.2c0.3-0.4,0.7-0.6,1.3-0.6h0.3
		l0.8,0.1c0.4,0,0.8,0,1-0.1l0.1,0.3h0.1c0.1,0,0.2,0,0.3,0.1l0.4,0.6c0.3-0.1,0.6-0.1,1-0.1c0.5,0,1.1,0.1,1.7,0.3l1.3,0.4
		c0.4,0.2,0.9,0.3,1.3,0.3l-1.5-0.9l-1.7-0.8c-0.7-0.3-1.3-0.4-1.8-0.4c-0.4,0-0.8,0.1-1.2,0.3l-0.1-0.3c-10.1-2.1-19-3.2-26.6-3.2
		c0.1,0.1,0.1,0.2,0.1,0.3c0,0.3-0.2,0.5-0.5,0.6v-0.3c0-0.2,0-0.4-0.1-0.6l-2.6-0.4l-2.4-0.5c-0.7-0.1-1.3-0.1-1.9-0.1
		c-1.2,0-2.4,0.2-3.5,0.5l-0.3-0.6h-7.3l-6.9-0.1c-3-0.1-5.7-0.1-8.1-0.1c-2.3,0-4.3,0-6,0.1c-0.5,0.4-1.1,0.6-1.8,0.6
		c-0.7-0.1-1.3-0.3-1.8-0.6c-1.8,0.4-3.8,0.7-5.9,0.8l-2.8,0.1h-2.7c-4.8,0.1-8.8,0.6-11.9,1.4c-0.1-0.1-0.3-0.2-0.5-0.3H284
		c-0.6,0-1.1-0.2-1.4-0.6l-0.4,0.6l-0.4,0.5c-0.3,0.4-0.6,0.6-0.9,0.6l0.9,1.4l1.4-0.1l1.5-0.1h0.8c0.8,0,1.4,0.1,1.9,0.3l-0.6,0.4
		v0.5l0.1,0.4l0.5-0.4l0.3-0.3c0.1-0.1,0.1-0.2,0.1-0.3c0-0.2-0.1-0.3-0.4-0.4c0.3,0,0.4-0.2,0.4-0.5l0.1-0.4
		c0.1-0.2,0.3-0.3,0.5-0.4l0.6,1.2c1.6-0.6,3.7-0.9,6.2-0.9c1.3,0,2.7,0.1,4.2,0.3c-0.5,0.2-1.1,0.3-1.8,0.4l-1.8,0.1
		c-1.5,0-2.4,0.2-3,0.6c0.4,0.1,0.9,0.1,1.5,0.1l1.8-0.1h0.6c1.1,0,1.8,0.2,2.2,0.6c-2,0-4.9,0.2-8.7,0.5l-4.4,0.4
		c-1.5,0.2-2.9,0.3-4,0.3c-0.9,5.8-2.5,12.4-4.9,19.8l-1.5,4.6l-1.4,4.5c-1.3,3.7-2.3,6.7-3,9c-0.3,0.2-0.6,0.4-0.8,0.6l-0.4,1
		c-0.3,0.9-0.8,1.4-1.3,1.4c0,0.2,0,0.3,0.1,0.4l0.3,0.3c0.1,0.1,0.1,0.2,0.1,0.4c0,0.2,0,0.4-0.1,0.6c-0.9,2.6-1.8,5.4-3,8.5
		l-1.4,3.9l-1.4,3.7c-2.1,5.9-3.7,10.7-4.6,14.5c-0.3,0.1-0.5,0.2-0.6,0.4l-0.1,0.3v0.4c-0.2,0.4-0.4,0.6-0.8,0.6H257
		c0.2,0.4,0.3,0.9,0.3,1.3c0,0.4-0.1,0.9-0.3,1.3c-0.3,0.9-0.9,1.5-1.8,1.5c0,0.2,0,0.3,0.1,0.5l0.3,0.4c0.3,0.3,0.4,0.5,0.4,0.8
		v0.3c-2.8,7.3-4.4,12-4.8,14.3c-0.6,0.9-1.1,2.1-1.4,3.3h-0.5c0.1,0.3,0.1,0.6,0.1,0.9l-0.1,0.8l-0.3,0.5l-0.1,0.5
		c-0.3,1.1-0.5,2.3-0.8,3.6H248l-0.3,2.1c-0.2,0.8-0.3,1.4-0.4,1.9c-0.4,1.4-1.1,2.3-2.1,2.7v0.6c0.1,0.1,0.2,0.1,0.4,0.1
		c0.3,0.1,0.4,0.2,0.4,0.4c0,0.1,0,0.2-0.1,0.3c-0.4,0.3-0.8,0.9-1,1.7l-0.3,1l-0.3,1.2c-0.3,2-0.9,3.2-1.8,3.7
		c0.3,0.7,0.4,1.3,0.4,1.9c0,1.6-0.9,2.7-2.8,3.2c0.1,0.3,0.2,0.6,0.4,0.9c0.2,0.3,0.4,0.4,0.6,0.5c-0.4,1.2-0.9,2.7-1.3,4.5
		l-0.5,2.6l-0.6,2.6c-1,4.5-2.1,8.3-3.3,11.2c-0.8,3.9-1.8,8.8-3.1,14.8l-3.1,14.6c-2.4,11.6-4.2,21.8-5.5,30.4
		c-0.1,1.6-0.2,3.6-0.4,5.8l-0.4,6c-0.3,5.2-0.6,9.3-0.6,12.3v1.8c0,8.5,1.1,14.8,3.3,19l-0.4,2.2c-0.2,0.1-0.4,0.1-0.8,0.1
		c-0.3,0-0.7,0-1.2-0.1l-1.2-0.1l-1.2-0.1c-0.1-0.4-0.3-0.9-0.6-1.4l-0.5-0.6l-0.5-0.5c-0.8-0.8-1.2-1.5-1.2-2.1
		c0-0.2,0-0.3,0.1-0.5c-4-5.2-6-14.1-6-26.7c0-2.6,0.1-5.4,0.3-8.3c0.6,0.3,0.9,1.1,1,2.6c0.1,0.1,0.2,0.1,0.3,0.1
		c0.2,0,0.3-0.2,0.4-0.5l0.1-0.4l0.1-0.1c0.1-0.1,0.2-0.1,0.3-0.1h0.3v0.4c0,0.6-0.2,1-0.5,1.3l-0.6,0.3l-0.8,0.3
		c0.3,1.1,0.4,2.6,0.5,4.5v5.5c0.1,4.9,0.4,8.3,1,10.4v-4l-0.1-4c0-3.3,0.1-6,0.4-8.2c-0.3,0-0.4,0.2-0.4,0.6v0.6l-0.3,0.5v-0.4
		l-0.1-0.4l-0.1-1c0-0.9,0.2-1.3,0.6-1.3h0.1c0.1-0.2,0.1-0.3,0.1-0.4c0-0.3-0.1-0.5-0.4-0.6L214,666c-0.2-0.2-0.3-0.3-0.3-0.5
		c0.2-0.3,0.4-0.5,0.6-0.5h0.1c0.3,0,0.5,0.1,0.6,0.4c-0.1-0.3-0.1-0.8-0.1-1.3l0.1-1.4c0-1.1-0.3-1.7-0.9-1.7
		c0.5-0.2,0.8-0.5,0.9-0.9c0.1-0.3,0.1-0.6,0.1-1.2c-0.1-0.3-0.1-0.6-0.1-0.8c0-0.4,0.1-0.7,0.4-0.8c0-0.3,0-0.5-0.1-0.8l-0.5-0.6
		c-0.2-0.3-0.3-0.6-0.3-0.9c0-0.3,0-0.5,0.1-0.8l0.1-0.1c0.1,0,0.2,0,0.3,0.1l0.3,0.3h0.1v-0.5c0.2-0.3,0.3-0.6,0.3-0.6
		c0-0.1,0-0.1-0.1-0.1l-0.4,0.3l-0.4,0.1c0.1-0.4,0.1-0.8,0.1-1.2v-1.4c0-0.4,0-0.8,0.1-1c0.3,0,0.5,0.1,0.5,0.4
		c0,0.1,0,0.2-0.1,0.4l-0.3,0.8v0.9c0.4-0.5,0.7-1.3,0.9-2.4c0.1-0.5,0.1-1,0.1-1.4c0-0.5,0-1-0.1-1.5h-0.1c-0.2,0-0.3,0.1-0.3,0.4
		l-0.1,0.5v0.5c-0.3-0.6-0.4-1.3-0.4-2.1c0-0.5,0-1.1,0.1-1.7c0.4,0.1,0.6,0.5,0.6,1.3v0.4c0.4-0.3,0.7-1.1,0.8-2.2l0.1-1.4
		c0.1-0.5,0.2-0.9,0.4-1.2c0-0.2,0-0.3-0.1-0.3c-0.1,0-0.3,0.1-0.5,0.3c-0.2,0.2-0.3,0.3-0.5,0.3c-0.1,0-0.2-0.2-0.3-0.5
		c1.5-2.2,2.5-5.4,3.1-9.4l0.4-2.6l0.4-2.7c0.3-2.1,0.6-3.8,1-5.3l0.8,0.1c0.3,0.1,0.4,0.2,0.5,0.3c0.1-0.2,0.1-0.3,0.1-0.4
		c0-0.5-0.5-0.8-1.5-0.9c0.7-0.3,1.1-1.1,1.2-2.6v-0.8l0.1-0.8c0.1-0.6,0.2-1,0.4-1.3c0-0.2-0.1-0.3-0.3-0.4l-0.6-0.3
		c-0.3-0.1-0.5-0.3-0.5-0.5v-0.3c0.2,0.3,0.4,0.4,0.8,0.4l0.5-0.1h0.6c0.1-2.3,0.8-5.9,2.1-10.8l0.8-3l0.9-3c0.6-2.4,1-4.5,1.3-6.3
		c0.2-0.1,0.3-0.1,0.5-0.1h0.8c0.3,0,0.6-0.2,0.8-0.5c-0.1-0.4-0.2-0.6-0.4-0.6c-0.1,0-0.2,0-0.3,0.1l-0.1,0.3l-0.3,0.1h-0.1
		c-0.2,0-0.3,0-0.5-0.1c1.6-6.6,3.3-12.7,4.9-18.4c0.5,0,0.8,0.1,0.8,0.4v0.3l-0.3,0.6l-0.3,0.8h0.1c0.3,0,0.5-0.3,0.8-0.9l0.1-0.9
		c0.1-0.3,0.2-0.4,0.4-0.4c-0.1-0.2-0.3-0.3-0.5-0.3h-0.1l-0.4,0.1c-0.2,0-0.4,0-0.6-0.1l0.6-1.9l0.6-2.1c0.4-1.8,0.8-3.1,1.2-4
		c0.2-0.2,0.3-0.3,0.5-0.3l0.5,0.3c0.2,0.1,0.3,0.1,0.5,0.1c0.2,0,0.3-0.1,0.4-0.3v-0.3c0-0.3-0.1-0.4-0.4-0.4h-0.4l-0.4,0.1
		l-0.3,0.1c-0.3,0-0.4-0.1-0.4-0.4l1.7-5.5l1.7-5.4c-0.2-0.3-0.4-0.5-0.6-0.5c-0.2,0-0.3,0-0.5,0.1l-0.6,0.3c-0.3,0-0.5-0.1-0.8-0.3
		l-0.6,2.7l-0.8,2.6c-0.6,2.3-1.1,4.2-1.4,5.5c-0.9,2.6-1.9,5.5-2.8,8.7l-1.2,4.4l-1,4.2c-1.8,7.1-3.3,12.1-4.5,14.9
		c0,2.3-0.7,6.1-2.2,11.3l-0.8,3l-0.8,3.1c-0.5,2.3-0.8,4.3-0.9,6c-0.9,3.3-1.8,8.1-2.7,14.6l-1.2,8.1c-0.5,3.2-1,5.9-1.4,8.2v5.7
		c-0.1,2.3-0.6,3.9-1.7,4.6c2.2-27.7,9.8-63.4,22.7-107.1h-0.1l0.1-0.1c0.2-0.6,0.3-1.2,0.5-1.9v-0.5l0.1-0.1v-0.3l0.8-1.7
		c0.3-0.6,0.6-1.2,0.6-1.9h-0.1c0.3-0.9,0.4-1.8,0.4-2.7h0.3c0.2-1.2,0.5-2.4,1-3.7c0.6-1.5,1.2-2.6,1.9-3.2
		c0.1-0.3,0.1-0.5,0.1-0.6c0-0.3,0-0.5-0.1-0.8l-0.1-0.6v-0.8l1.8-5l1.8-5.1l3.7-10.7c2.8-8.3,5.1-15.3,6.8-21.1
		c0.3-0.1,0.6-0.3,0.9-0.6l0.3-0.4l0.4-0.3c0.6-2.9,1.5-6,2.6-9.2l1.7-4.4l1.5-4.4c2.8-7.4,4.7-13.2,5.5-17.2l1.3-3.1
		c0.5-1.4,1-2.4,1.4-3.2h-0.3l-0.8-0.9c-0.3,0.2-0.4,0.3-0.4,0.4v0.6l-0.4,0.1h-0.1c-0.3-0.1-0.5-0.1-0.8-0.1l-0.8,0.3
		c-0.3,0.1-0.5,0.1-0.6,0.1c-0.3,0-0.6-0.1-0.9-0.4c-6.1,1.2-13.7,2.6-22.9,4.1l-11.2,1.8l-11.2,1.9c-7.4,2.9-15.2,5.1-23.1,6.4
		c-1.5,0.8-3.3,1.5-5.3,2.1l-2.7,0.6l-2.6,0.6c-4.4,1.2-7.9,2.6-10.5,4.1c-0.3,0.1-0.7,0.1-1.2,0.1l-0.9-0.1h-0.4
		c-0.7,0-1.3,0.2-1.8,0.6c-1.1-0.7-1.9-1.7-2.4-3.1l-0.4-0.9l-0.3-1c-0.3-0.9-0.6-1.6-0.9-2.2c0.2-1.8,0.7-3.3,1.7-4.6
		c0.9-1.2,2-1.8,3.2-1.8c0.4,0,0.9,0,1.3,0.1c3.3-2,7.7-3.6,13.2-4.9l3.3-0.8l3.3-0.9c2.6-0.7,4.8-1.5,6.7-2.3
		c0.5,0.2,1,0.3,1.5,0.3l1.4-0.4c0.4-0.1,0.9-0.1,1.3-0.1c0.7,0,1.3,0.1,1.8,0.4c0.5-0.3,0.9-0.6,1.2-0.9l0.4-0.5l0.3-0.5l0.1,0.4
		l0.1,0.4c10-1.9,18.3-3.4,24.8-4.5c9.6-1.6,18.1-3,25.7-4h0.6v0.1l0.1-0.1h1.7c1.8,0,3.8-0.1,5.9-0.3l0.9-0.1h0.1l2.7-0.3
		c1-0.1,1.9-0.2,2.6-0.4h1.5c0.5,0,1.2-0.1,2.2-0.3l2.6-0.3c1.5-0.2,2.9-0.3,4.1-0.5c1.5-0.3,2.5-0.5,3.1-0.8c1,0.2,2.3,0.3,3.7,0.3
		c2.1,0,4.8-0.2,7.8-0.5l3-0.3l3-0.1c0.9-0.1,1.7-0.1,2.4-0.1c1.2,0,2.3,0.1,3.2,0.3c0.5-0.3,1.2-0.5,1.9-0.5l1-0.1l1-0.3
		c1.3,0.3,2.7,0.4,4.1,0.4h4c0.9-0.1,1.8-0.1,2.7-0.1c2.1,0,3.7,0.2,4.9,0.5c1.1-0.4,2.5-0.6,4.2-0.6c0.6,0,1.2,0,1.8,0.1l3.1,0.3
		l3.1,0.3c0.8-0.1,1.7-0.1,2.7-0.1c1.5,0,3.3,0.1,5.4,0.3l4.1,0.3h4l0.5,0.3l0.5,0.1c0.5,0.2,0.9,0.3,1,0.5c0.1-0.2,0.5-0.5,1.3-0.9
		c0.8,0.5,2.4,0.9,4.9,1l1.5,0.1l1.4,0.3c1.1,0.2,2,0.5,2.7,0.9c0.3-0.3,0.7-0.5,1-0.5h0.4l0.4-0.1c2.5,0.4,5.5,1.1,9,1.9l4.2,1.2
		l4.4,1c0.3,0.5,0.5,1.1,0.5,1.7c0,0.3,0,0.6-0.1,0.9l-0.3,1.2C391.7,445.7,391.9,446.2,392.1,446.6z M220,678.9l0.1-1.3v-0.4
		c0-0.8-0.2-1.3-0.5-1.5c0.1,0.3,0.1,0.7,0.1,1.2l-0.1,1.3v0.6c0,0.7,0.1,1.1,0.4,1.3V678.9z M220.3,665.4c0.2-0.1,0.3-0.3,0.4-0.5
		c0.1-0.2,0.1-0.3,0.1-0.5c0-0.2,0-0.3-0.1-0.4c0-0.3,0-0.6-0.1-0.6c-0.1-0.1-0.2-0.1-0.3-0.1c-0.1,0-0.2,0.1-0.3,0.3h0.1
		c0.1,0,0.1,0.1,0.1,0.3c0,0.2,0,0.4-0.1,0.6l-0.1,0.3v0.4C220,665.3,220.1,665.4,220.3,665.4z M220.8,645.2c0-0.3,0-0.5,0.1-0.6
		l0.3-0.6v-0.1c0-0.1-0.1-0.1-0.3-0.1h-0.4v0.8C220.5,644.8,220.6,645.1,220.8,645.2z M221.3,657.6v-0.8c-0.1-0.2-0.2-0.3-0.3-0.3
		h-0.1c-0.1,0.2-0.1,0.4-0.1,0.6h0.1l0.1,0.1C221.1,657.4,221.1,657.5,221.3,657.6z M220.9,640.6c0.1,0.5,0.3,0.9,0.5,1V641l0.1-0.6
		c0-0.4-0.1-0.6-0.3-0.6h-0.1C221,639.9,220.9,640.2,220.9,640.6z M221.2,624.1l-0.1,0.5c0,0.3,0.1,0.5,0.4,0.5h0.1
		c0.3-0.4,0.4-0.8,0.4-1s-0.2-0.4-0.6-0.5L221.2,624.1z M221.8,632.4h-0.6v0.6h0.5C221.7,632.9,221.7,632.7,221.8,632.4z M222,651.5
		c0-0.6,0-1.2,0.1-1.8l0.5-1.5c0.3-0.9,0.5-1.7,0.5-2.2c0-0.2,0-0.3-0.1-0.5c0-0.2,0-0.3-0.1-0.5c-0.1-0.1-0.2-0.2-0.4-0.3l-0.3,1.8
		l-0.4,1.8c-0.1,0.9-0.1,1.6-0.1,2.2v0.9c-0.2,0.4-0.3,0.8-0.3,1s0,0.4,0.1,0.4c0.1,0,0.2-0.1,0.3-0.4
		C221.9,652.2,222,651.9,222,651.5z M222,449.9c0,0.3,0.1,0.4,0.3,0.4h0.4c0.2,0,0.3-0.1,0.4-0.3c0.1-0.1,0.1-0.2,0.1-0.3
		c0-0.1,0-0.2-0.1-0.3l-0.3,0.3c-0.2,0-0.3,0-0.3-0.1C222.3,449.8,222.1,449.8,222,449.9z M222,636.1c0,0.4,0.1,0.8,0.4,1v-0.6
		l0.3-0.6v-0.5c0-0.3,0-0.4-0.1-0.4C222.1,635.2,222,635.6,222,636.1z M222.6,643.8h0.1c0.5,0,0.9-0.6,1-1.7v-0.5
		c0-0.9-0.2-1.5-0.5-1.7c0,0.6,0,1.2-0.1,1.8l-0.3,0.9L222.6,643.8z M222.7,632.5v0.4l0.5-1.4l0.4-1.5c0.2-0.6,0.3-1.1,0.3-1.5
		c0-0.4-0.1-0.8-0.3-1C223,629.5,222.7,631.2,222.7,632.5z M224.1,638.2l0.4-0.9c0.1-0.3,0.1-0.5,0.1-0.6c0-0.4-0.1-0.7-0.4-0.9
		c0.1-0.2,0.1-0.3,0.1-0.5c0-0.1,0-0.2-0.1-0.3v-0.1c-0.1,0-0.2,0-0.3,0.1c-0.1,0.1-0.1,0.2-0.1,0.4c0,0.2,0.1,0.3,0.4,0.4
		c-0.1,0.4-0.2,0.9-0.3,1.3l-0.1,0.5l-0.3,0.5c-0.1,0.2-0.1,0.3-0.1,0.5c0,0.3,0.1,0.4,0.4,0.5C223.9,638.8,224,638.5,224.1,638.2z
		 M224,610.1h0.5c0.2,0,0.3-0.1,0.4-0.3l-0.3,0.1h-0.3C224.1,609.9,224,610,224,610.1z M225.4,619.2c-0.1,0-0.2,0-0.3,0.1h0.4
		c0.2,0,0.3,0,0.3-0.1H225.4z M225.7,631.4c0.1-0.2,0.1-0.3,0.1-0.4c0-0.3-0.2-0.5-0.5-0.5v0.8c0,0.3,0,0.4,0.1,0.4
		C225.4,631.5,225.5,631.4,225.7,631.4z M225.9,629.1l0.3-0.9c0.3-0.9,0.5-1.6,0.6-2.2c0.2-0.8,0.3-1.5,0.3-2.2
		c0-0.7-0.1-1.3-0.4-1.8c-0.1,0.3-0.2,1-0.4,1.9l-0.5,2.2c-0.2,1.1-0.3,2-0.3,2.7c0,0.4,0,0.8,0.1,1L225.9,629.1z M226.8,620.8h0.3
		l0.1,0.3h0.1l0.1-0.3c0-0.2-0.1-0.3-0.3-0.3C227.1,620.6,226.9,620.7,226.8,620.8z M233.3,448.9l0.1-0.3c0.1-0.2,0.1-0.3,0.1-0.4
		c0-0.2-0.1-0.3-0.3-0.4l-1.4,0.3l-1.5,0.3c-1.3,0.2-2.4,0.3-3.2,0.4c0.3,1.1,0.5,1.8,0.6,2.1h0.1c0.3,0,0.7-0.2,1.4-0.6
		c-0.2-0.3-0.4-0.4-0.6-0.4H228c0.3-0.3,0.5-0.4,0.8-0.4s0.5,0.1,0.8,0.3l0.6,0.4c0.3,0.1,0.4,0.1,0.5,0.1l0.6-0.8
		c0.3-0.3,0.4-0.4,0.5-0.5c0.1-0.1,0.2-0.1,0.4-0.1c0.3,0,0.7,0.2,1.2,0.6C233.3,449.2,233.3,449.1,233.3,448.9z M228.9,446.7
		c-0.2,0.1-0.3,0.2-0.5,0.3h-0.6c-0.3,0.1-0.5,0.2-0.5,0.4c0,0.1,0,0.2,0.1,0.3l0.9,0.1c0.3,0,0.7-0.1,1-0.4L228.9,446.7z
		 M227.9,618.9l0.4-0.6c0.1-0.1,0.1-0.2,0.1-0.4c0-0.2-0.2-0.3-0.6-0.4v0.6l-0.3,0.6v0.4c0,0.3,0,0.4,0.1,0.5
		C227.6,619.4,227.7,619.2,227.9,618.9z M228.8,606.6v-0.5c0-0.3-0.2-0.5-0.5-0.5H228v0.5c0,0.5,0.2,0.8,0.6,0.8L228.8,606.6z
		 M229.4,611.9l0.9-3.7l0.9-3.6c0.6-2.7,0.9-5,1-6.7l-1,4l-1,4.1c-0.8,3-1.2,5.5-1.2,7.4v0.6c0.2-0.2,0.3-0.4,0.3-0.6v-0.8
		C229.3,612.4,229.3,612.1,229.4,611.9z M230.7,599.1c-0.2-0.1-0.3-0.1-0.5-0.1l-0.4,0.3l-0.1,0.1v0.1c0,0.1,0.1,0.1,0.4,0.1
		l0.1-0.1h0.1C230.5,599.5,230.6,599.4,230.7,599.1z M230.3,586c0,0.2,0,0.3-0.1,0.4l-0.3,0.4c-0.1,0.1-0.1,0.2-0.1,0.3
		c0,0.2,0.1,0.3,0.3,0.4c0-0.1,0.1-0.2,0.3-0.4l0.3-0.5c0.1-0.1,0.1-0.2,0.1-0.3c0-0.2-0.1-0.3-0.4-0.4V586z M230.8,447
		c0.1,0.1,0.2,0.2,0.4,0.4h0.1l0.1,0.1l0.5-0.3c-0.1-0.2-0.2-0.3-0.3-0.5h-0.1c-0.1,0-0.2,0-0.3-0.1
		C231.2,446.8,231,446.9,230.8,447z M230.8,589.4v0.6h0.8c0-0.2,0-0.3,0.1-0.5L230.8,589.4z M232.4,585c-0.3,0.3-0.5,0.6-0.5,0.6
		c0.1,0,0.3,0,0.5-0.1c0.3-0.3,0.4-0.5,0.5-0.6v-0.1c0-0.1-0.1-0.1-0.4-0.1L232.4,585z M233.5,446.1l-0.5,0.1
		c-0.3,0.1-0.4,0.2-0.4,0.4v0.1h1c0.3-0.1,0.4-0.2,0.4-0.4c0-0.2,0-0.3-0.1-0.5C233.8,446,233.7,446.1,233.5,446.1z M233.9,593.7
		c0-0.4-0.1-0.8-0.4-1c0.1,0.2,0.1,0.3,0.1,0.5c0,0.2,0,0.4-0.1,0.6l-0.4,0.9c-0.2,0.3-0.3,0.6-0.3,0.9c0,0.2,0,0.3,0.1,0.4
		C233.6,595.1,233.9,594.3,233.9,593.7z M233.6,592.5h0.5c0.2,0,0.3-0.1,0.3-0.3h-0.5C233.7,592.2,233.6,592.3,233.6,592.5z
		 M244.6,447.1l0.5-0.4c0.3-0.3,0.5-0.6,0.5-0.8c0-0.1,0-0.2-0.1-0.3l-2.8,0.4l-3,0.5c-2.3,0.4-4.3,0.9-5.9,1.5
		c0.3,0.1,0.5,0.3,0.8,0.8c0.4-0.6,1.1-0.9,2.1-0.9c0.9,0.1,1.6,0.6,2.1,1.4l0.3-0.3l0.5-0.3c0.2-0.2,0.3-0.4,0.3-0.6v-0.1
		c-0.3,0.3-0.5,0.5-0.8,0.5s-0.5-0.1-0.6-0.3l0.3-0.1l0.1-0.3c0-0.1,0-0.2,0.1-0.3c0.1,0.1,0.3,0.1,0.6,0.1h0.5l0.6-0.3
		c0.3,0,0.5,0,0.6,0.1l-0.6,0.5c-0.1,0.1-0.1,0.2-0.1,0.4v0.3c0.4-0.3,1-0.5,1.8-0.5l1-0.1l0.9-0.3c-0.1-0.1-0.3-0.2-0.5-0.3
		l-0.5-0.1c-0.3,0-0.4-0.1-0.4-0.3c0-0.1,0-0.2,0.1-0.4c0.1-0.1,0.2-0.1,0.4-0.1c0.3,0,0.6,0.3,0.9,0.9L244.6,447.1z M233.8,591.6
		c0.8-0.4,1.3-1.4,1.7-3c0.2-0.6,0.3-1.3,0.4-2.1c0.1-0.5,0.1-1.1,0.1-1.8c-0.3,0.7-0.7,1.8-1,3.3l-0.5,1.7L233.8,591.6z
		 M234.4,570.5l0.1,0.1l0.1,0.1h0.1l0.1-0.3v-0.1l-0.1-0.1l-0.3,0.1L234.4,570.5z M234.7,592.9c0.1,0.1,0.2,0.1,0.3,0.1h0.1
		c0.2,0,0.3-0.1,0.4-0.4c0.1-0.1,0.1-0.2,0.1-0.3c0-0.1,0-0.1-0.1-0.1c-0.1-0.2-0.2-0.3-0.4-0.3c-0.1,0.3-0.2,0.4-0.4,0.4V592.9z
		 M238.4,445.3l-1.3,0.1c-0.9,0.2-1.5,0.6-1.8,1.2c0.3-0.2,0.6-0.3,1-0.3l0.9-0.1c0.9,0,1.6-0.3,2.2-0.8l0.1,0.3
		c0.1-0.1,0.2-0.1,0.3-0.1c0.1,0,0.1,0,0.1,0.1l0.6-0.4c-0.1-0.1-0.2-0.1-0.4-0.1c-0.2,0-0.4,0.1-0.8,0.3L238.4,445.3z M235.3,566.5
		c0,0.3,0.1,0.4,0.3,0.4h0.3v-0.4c0-0.3-0.1-0.5-0.4-0.5C235.4,566.3,235.3,566.4,235.3,566.5z M235.7,571.8
		c-0.1,0.4-0.1,0.9-0.1,1.4v0.5c0.1-0.1,0.2-0.5,0.4-1.2c0.4-0.4,0.6-0.8,0.6-1.2c0-0.3-0.1-0.5-0.3-0.6
		C236.1,570.9,235.9,571.3,235.7,571.8z M236.1,575.3l0.4,0.3l0.5,0.4c0.1,0.1,0.2,0.1,0.3,0.1c0.2,0,0.3-0.1,0.4-0.3
		c-0.2-0.1-0.3-0.3-0.3-0.5l0.1-0.4l0.1-0.4v-0.4c0-0.3-0.1-0.5-0.3-0.5h-0.1c-0.1,0.3-0.3,0.6-0.5,0.9l-0.3,0.3L236.1,575.3z
		 M237.2,560.1c0.6-0.8,1.2-1.7,1.7-2.8c0.3-0.9,0.5-1.6,0.5-2.2c0-0.3,0-0.6-0.1-0.9l-0.5,1.5l-0.5,1.4
		C237.8,558.4,237.4,559.4,237.2,560.1z M239.3,548.5c0.3,0,0.7-0.3,1-1c-0.2,0-0.3,0-0.4-0.1c-0.1-0.2-0.1-0.3-0.1-0.5h0.1
		c0.4,0,0.8-0.3,1.2-1c-0.1,0-0.1-0.1-0.1-0.3v-0.4c-0.2-0.1-0.3-0.1-0.5-0.1c-0.3,0-0.5,0-0.8,0.1l-0.5,0.1c-0.2,0-0.4,0-0.6-0.1
		l-0.1,0.6l-0.3,0.6v0.4c0,0.3,0.1,0.4,0.3,0.5l0.1-0.3v-0.4c0.1-0.2,0.2-0.3,0.4-0.3l-0.3,1.5l-1.2-0.1v0.1c0,0.2,0,0.3,0.1,0.4
		c0.1,0.1,0.2,0.2,0.4,0.3c0.3,0,0.4,0,0.5-0.1c0.1-0.1,0.1-0.2,0.1-0.4V548C238.8,548.4,239,548.5,239.3,548.5z M239,574l0.3-0.5
		c0.2-0.3,0.3-0.5,0.3-0.6c0-0.3-0.1-0.4-0.3-0.5c-0.1,0.1-0.2,0.3-0.3,0.5l-0.4,0.8c-0.1,0.3-0.1,0.4-0.1,0.5
		c0,0.3,0.1,0.6,0.4,0.6C238.9,574.5,239,574.2,239,574z M254.4,506.3c-0.1-0.3-0.1-0.7-0.1-1c0-0.5,0.1-1.1,0.3-1.7l0.5-1.2
		l0.6-1.2c0.5-1,0.8-1.9,0.8-2.7c0-0.6-0.2-1.1-0.5-1.5c-0.2,0.4-0.7,1.1-1.7,1.9c0.1,0.1,0.2,0.2,0.3,0.3l0.4,0.1h0.4
		c0.1,0.1,0.2,0.2,0.3,0.4c-0.4,0.2-0.8,0.6-1,1.3l-0.5,0.8l-0.3,0.9c-0.4,0.9-0.9,1.4-1.4,1.4c-0.3,0-0.5-0.1-0.8-0.3
		c0.2,0.3,0.3,0.5,0.3,0.8l-0.1,0.8c-0.1,0.2-0.1,0.3-0.1,0.5c0,0.3,0.1,0.5,0.4,0.8c-0.2,0.1-0.3,0.3-0.4,0.5l-0.1,0.6
		c-0.2,0.5-0.6,0.9-1.2,1l0.3,0.3h0.4c0.3,0.1,0.5,0.2,0.5,0.4v0.1c-0.1,0.3-0.3,0.6-0.5,1.2l-0.8,1.3c-0.2,0.5-0.3,0.9-0.3,1.3
		c0,0.4,0.1,0.8,0.3,1h-0.5l-0.4,0.1h-0.1c-0.2,0-0.3-0.1-0.5-0.3c0,0.1,0,0.3,0.1,0.5l0.3,0.6v0.1c0,0.3-0.3,0.5-0.8,0.5H248
		c0.1,0.3,0.1,0.6,0.1,1c0,0.7-0.2,1.7-0.6,3l-0.9,2.2c-0.3,0.9-0.4,1.6-0.4,2.2c-0.2,0.1-0.3,0.1-0.4,0.1h-0.1l-0.1-0.1
		c-0.2-0.1-0.3-0.1-0.5-0.1v0.3c0,0.3,0,0.6-0.1,1l-0.3,1.4c-0.1,0.3-0.1,0.6-0.1,0.9c0,0.7,0.2,1.2,0.5,1.5c-0.3,0-0.7,0.1-1,0.3
		l-0.4,0.3l-0.5,0.3v0.6l-0.3,0.8c-0.1,0.3-0.1,0.5-0.1,0.6c0,0.2,0.1,0.3,0.3,0.4c0-0.2,0.1-0.3,0.3-0.3c0.1,0,0.2,0,0.4,0.1
		c0.4,0.2,0.6,0.3,0.6,0.5c-0.3,0-0.5,0.2-0.6,0.5l-0.3,0.4c-0.1,0.1-0.2,0.1-0.3,0.1H243c-0.1,0-0.2,0-0.3-0.1v-0.5
		c-0.1-0.3-0.2-0.6-0.4-0.6c-0.3,0.8-0.5,1.5-0.8,2.3l-0.6,2.2c-0.4,1.7-0.9,3-1.3,3.9c0.2-0.1,0.3-0.1,0.4-0.1
		c0.3,0,0.5,0.2,0.5,0.6v0.6c0,0.3,0.1,0.4,0.3,0.5c0-0.3,0-0.4,0.1-0.4c0.1,0,0.2,0,0.3,0.1l0.4,0.3c0.2,0.1,0.3,0.1,0.5,0.1
		c0.1-0.3,0.1-0.5,0.1-0.8s0-0.5-0.1-0.8l-0.3-0.6l-0.1-0.6l1.2,0.1c0.2-1.3,0.5-2.7,1-4.4l0.8-2.2l0.8-2.1c1.2-3.2,1.8-5.4,1.8-6.8
		v-0.3c0.3-0.8,0.7-1.5,1-2.3c0.5-1,0.9-2,1.3-3c0.9-2.6,1.4-4.7,1.4-6.3h0.3l0.3-0.4l0.4-0.5c0.3-0.4,0.5-0.7,0.8-0.8
		c-0.2-0.3-0.3-0.6-0.3-0.9c0-0.4,0.2-1,0.5-1.7C253.3,507.7,253.8,506.9,254.4,506.3z M240.7,551.9c0-0.3-0.1-0.4-0.3-0.5
		c-0.2,0-0.3,0.1-0.5,0.4l0.3,0.1l0.1,0.1C240.4,552,240.5,552,240.7,551.9z M248.9,443.4c-0.6,0.3-1.3,0.6-2.1,0.6l-2.2,0.1
		c-1.7,0.1-3,0.5-3.7,1.3c0.5-0.2,1.2-0.3,2.1-0.3l1.2-0.1l1.3-0.1C247.3,444.7,248.4,444.2,248.9,443.4z M241.1,569.1
		c-0.1,0.3-0.1,0.5-0.1,0.6c0.1,0.1,0.2,0.2,0.4,0.3h0.4c0.1-0.1,0.1-0.2,0.1-0.3v-0.3h-0.1l-0.1-0.1
		C241.5,569.3,241.3,569.2,241.1,569.1z M241.1,560.4c0,0.3,0.2,0.6,0.5,0.9l0.1-0.5l0.1-0.6c0-0.3-0.1-0.5-0.4-0.5h-0.1
		C241.2,559.8,241.1,560.1,241.1,560.4z M243.7,558.6c0.1,0.2,0.2,0.3,0.3,0.4c0.2,0.2,0.3,0.3,0.4,0.3c0.2-0.1,0.3-0.2,0.4-0.4
		c-0.1,0-0.2,0-0.3-0.1l-0.1-0.4c-0.1-0.2-0.2-0.3-0.4-0.3h-0.1C243.7,558.2,243.7,558.4,243.7,558.6z M245.1,554.8h-0.8
		c-0.2,0-0.3,0.1-0.4,0.3c0.2,0,0.3,0,0.3,0.1l0.1,0.4c0.1,0.3,0.3,0.4,0.5,0.5L245.1,554.8z M254.3,445.3c0.9,0.3,2.4,0.5,4.6,0.5
		h2.6c1.4-0.1,3-0.3,5-0.5l2.4-0.3l2.4-0.3l0.1-0.8h0.3c0.1-0.2,0.2-0.3,0.3-0.5V443c-0.1-0.2-0.2-0.3-0.3-0.3
		c-0.1,0.3-0.2,0.5-0.3,0.5c0-0.2,0-0.4,0.1-0.8c-1.6,0.3-3.8,0.6-6.4,0.9c-1.5,0.1-2.7,0.1-3.6,0.1c-0.9,0-1.5,0-1.8-0.1
		c-0.6,0.3-1.4,0.6-2.4,0.9l-1.5,0.1l-1.5,0.1c-2.7,0.2-4.6,0.6-5.5,1.2c-0.3-0.3-0.6-0.4-1-0.4h-0.4l-0.8,0.1l-0.8,0.3
		c0.1,0.4,0.3,0.6,0.5,0.6h0.4l0.4,0.1c-0.3,0.3-0.7,0.6-1.2,0.6l-0.5,0.1c-0.3,0.1-0.5,0.2-0.6,0.4c0.9,0.2,1.8,0.3,2.8,0.3
		c0.7,0,1.4,0,2.2-0.1C252,447.4,253.5,446.6,254.3,445.3z M245.2,553.7c0.2-0.2,0.3-0.3,0.3-0.5v-0.3c0-0.3-0.2-0.4-0.5-0.5v0.8
		C244.9,553.5,245,553.7,245.2,553.7z M245.2,535.8c0.2,0.1,0.3,0.1,0.5,0.1l0.1-0.9c-0.2,0-0.3,0-0.5-0.1L245.2,535.8z
		 M245.8,545.5c0.2-0.1,0.3-0.2,0.3-0.3h-0.3c-0.2,0-0.3,0.1-0.4,0.3H245.8z M247.1,547.1h-0.5c-0.1,0.2-0.1,0.3-0.1,0.5
		c0.2,0.1,0.3,0.1,0.5,0.1L247.1,547.1z M246.6,530.6l0.3,0.1l0.4,0.3v-0.9c-0.1-0.3-0.3-0.4-0.5-0.4L246.6,530.6z M248.4,527
		l0.1-0.6l0.3-0.6c0.2-0.4,0.3-0.8,0.3-1c0-0.3-0.1-0.6-0.4-0.6l-0.3,1l-0.3,1c-0.1,0.5-0.1,1-0.1,1.4v0.5
		C248.1,527.8,248.2,527.5,248.4,527z M250,534.9c0.2-0.4,0.3-1,0.5-1.8c-0.2-0.1-0.3-0.1-0.4-0.1c-0.2,0-0.3,0-0.4,0.1
		c-0.2,0.2-0.3,0.4-0.4,0.6v0.8C249.5,534.7,249.7,534.8,250,534.9z M272.4,440.5c-0.9-0.1-2-0.1-3.1-0.1c-2.4,0-5.1,0.3-8.1,0.8
		l-5.8,1.2l-5.8,1.2c0.9,0.1,1.9,0.1,3,0.1c4.6,0,9.2-0.7,13.9-2.1c0.3-0.1,0.7-0.1,1.3-0.1l1.4,0.1c1.4,0,2.3,0,2.8-0.1
		L272.4,440.5z M250.6,527c0-0.3-0.1-0.6-0.4-0.6l-0.1,0.9c0,0.3,0,0.4,0.1,0.4c0.1-0.3,0.2-0.4,0.3-0.4l0.1,0.1V527z M251.4,532.9
		v-0.4c0-0.5-0.1-0.8-0.4-0.9c0,0.3,0,0.5-0.1,0.6c0.1,0,0.2,0.1,0.3,0.3L251.4,532.9z M254.1,520.9h-0.3c-0.3,0.2-0.4,0.4-0.4,0.6
		v0.3c0,0.2,0,0.3,0.1,0.4l0.3-0.5C253.9,521.5,254,521.2,254.1,520.9z M255.5,515.7h0.3c0.3,0,0.6-0.3,0.9-1
		c0.2-0.5,0.3-0.9,0.3-1.3c0-0.3,0-0.5-0.1-0.6c-0.1,0.5-0.3,1-0.5,1.4l-0.4,0.5C255.7,514.9,255.6,515.2,255.5,515.7z M257.9,495.1
		l0.1-1l0.1-0.9c0.1-0.7,0.2-1.2,0.4-1.7c-0.2,0.1-0.4,0.1-0.6,0.1h-0.5c0.1,0.1,0.1,0.2,0.1,0.4c0,0.2,0,0.3-0.1,0.5l-0.1,0.8v0.6
		c0,0.4,0,0.8,0.1,1h-0.3c0,0.1,0,0.2-0.1,0.3l-0.3,0.1c-0.3,0.2-0.4,0.4-0.4,0.8c0.3,0.1,0.5,0.1,0.8,0.1c0.3,0,0.6-0.2,0.9-0.5
		c-0.2-0.1-0.4-0.3-0.6-0.8C257.6,495,257.7,495,257.9,495.1z M258.2,490.2l0.3,0.1l0.3,0.1h0.1l0.1-0.3v-0.1l-0.3-0.1
		C258.5,490,258.3,490.1,258.2,490.2z M261.5,483.2l0.1,0.1v0.1h0.1c0.1,0,0.2,0,0.3-0.1c0-0.2-0.1-0.3-0.3-0.3
		C261.6,483.1,261.5,483.1,261.5,483.2z M263.7,446.6l-0.4,0.1l-0.4,0.3c-0.2,0.1-0.3,0.2-0.3,0.4v0.1
		C263.4,447.4,263.7,447.1,263.7,446.6z M357.4,439.4c0.3,0,0.7,0,1-0.1c-0.2-0.3-0.4-0.4-0.6-0.4h-0.3l-0.6,0.1h-0.6l-0.1-0.3h-0.4
		c-0.4,0-0.9-0.1-1.3-0.3l-0.8-0.3h-0.8c0.2-0.2,0.3-0.3,0.3-0.4c-0.1-0.1-0.2-0.2-0.3-0.3c-0.2,0-0.3,0-0.3,0.1v0.1
		c0,0.1,0.1,0.2,0.3,0.4c-9.4-0.4-18.3-0.6-26.6-0.6c-15.4,0-29.1,0.7-41,2.1c-0.2-0.2-0.4-0.3-0.6-0.3l-0.6,0.1h-0.3
		c-0.5,0-0.9-0.2-1-0.5c-0.7,0.8-2.1,1.2-4.2,1.2l0.9,0.8c1.2-0.1,2.7-0.3,4.4-0.5l4.5-0.8c0.4,0,1.1,0.1,2.1,0.3l1,0.3h1.2
		c1.4,0,3.3-0.2,5.9-0.5l3-0.4l3.1-0.4h6.3c2.5-0.1,4.7-0.3,6.6-0.5c0.6-0.1,1.3-0.1,2.1-0.1c1.1,0,2.4,0.1,4,0.3l3.1,0.3l3.1,0.3
		l1.7-0.1l1.8-0.4c1.5-0.2,2.7-0.3,3.6-0.3c0.9,0.1,2.1,0.2,3.7,0.4l1.8,0.3l2.1,0.3l3.1,0.1l3,0.1h1.4c1.8,0,3.3-0.1,4.6-0.4
		C356.5,439.3,356.9,439.4,357.4,439.4z M281.3,442.1c-0.3-0.2-0.8-0.3-1.3-0.4l0.6,0.8L281.3,442.1z M285,444.8
		c-0.2,0.1-0.3,0.2-0.4,0.4c0.1,0.1,0.2,0.2,0.3,0.4c0.1-0.1,0.2-0.2,0.4-0.3C285.2,445.1,285.1,445,285,444.8z M308.9,436.7h-0.5
		l-0.6,0.1c-0.3,0-0.5,0.1-0.5,0.4v0.1l0.4,0.1h0.6C308.7,437.4,308.9,437.1,308.9,436.7z M313.5,442.2c0,0.2,0.1,0.3,0.4,0.3h0.6
		c0.3-0.1,0.4-0.2,0.5-0.4V442c0-0.1,0-0.2-0.1-0.3c-0.2,0.2-0.3,0.3-0.4,0.3h-0.4C313.9,442,313.7,442,313.5,442.2z M314.4,443.8
		c0.2-0.2,0.4-0.3,0.6-0.3h0.3l0.3,0.1c0.2,0,0.3,0,0.5-0.1c-0.1-0.2-0.2-0.3-0.4-0.4c-0.2-0.1-0.4-0.1-0.6-0.1
		c-0.2,0.1-0.3,0.2-0.5,0.3C314.5,443.4,314.4,443.6,314.4,443.8z M318.3,442.1l0.3-0.1l0.1-0.3c-0.3,0-0.4,0.1-0.5,0.3l-0.3,0.4
		v0.3c0.1,0,0.2,0,0.3-0.1C318.1,442.4,318.2,442.3,318.3,442.1z M320.7,443.8h0.3l0.4-0.1c0.2,0,0.3-0.1,0.3-0.4l-0.3,0.1h-0.3
		C320.8,443.5,320.7,443.6,320.7,443.8z M329.3,442.2l0.1-0.1l0.3-0.1l-0.4-0.8c-0.1,0.1-0.2,0.2-0.4,0.3L329.3,442.2z M330,441.8
		l0.4,0.6l0.9-0.5l-0.4-0.6L330,441.8z M331.5,443.6v-0.1c0-0.1,0-0.1-0.1-0.1l-0.1,0.1c-0.1-0.1-0.2-0.1-0.3-0.1l-0.4,0.1
		c-0.1-0.2-0.2-0.3-0.4-0.3c-0.1,0.1-0.1,0.2-0.1,0.3v0.3h0.1c0.2,0,0.3-0.1,0.4-0.3c0.1,0.1,0.2,0.1,0.3,0.1c0.1,0,0.2,0,0.4-0.1
		C331.3,443.6,331.4,443.6,331.5,443.6z M336.5,443.5c0,0.2,0.1,0.3,0.3,0.3c0.2,0.1,0.4,0.1,0.6,0.1c0.2,0,0.3,0,0.5-0.1
		c0.1-0.1,0.1-0.2,0.1-0.3c0-0.1,0-0.1-0.1-0.1C337.1,443.4,336.7,443.4,336.5,443.5z M345.4,442.3c0.2,0.3,0.3,0.4,0.4,0.4h0.1
		l-0.1-0.1l-0.1-0.1C345.5,442.4,345.5,442.3,345.4,442.3z M383.6,443.1c0.7,0.4,1.6,0.8,2.8,1c0.3,0.1,0.7,0.1,1,0.1
		c0.6,0,0.9-0.2,1-0.5c-0.9-0.3-2.1-0.7-3.6-1l-3.9-0.8c-3.3-0.8-5.8-1.5-7.7-2.3c-0.4,0-0.9,0.3-1.3,0.9c-1.2-0.8-3-1.2-5.5-1.2
		h-3.1c-1.1,0-2.1-0.1-2.8-0.4c-0.1,0.2-0.3,0.3-0.6,0.4h-0.3l-0.4-0.1h-0.1c-0.2,0-0.3,0-0.3,0.1c0,0.2,0,0.3,0.1,0.5l2.8,0.3
		l3,0.3c2.3,0.2,4.2,0.5,5.7,1h1.2c1.5,0,3.3,0.2,5.4,0.6l3.2,0.6C381.5,443,382.6,443.1,383.6,443.1z M378.8,445.8l0.1-0.5
		c-0.4,0.3-0.6,0.5-0.6,0.8v0.3C378.4,446.2,378.6,446,378.8,445.8z M384.8,446.1c0,0.2,0,0.3,0.1,0.4h0.5l0.4-0.3
		c0.1-0.1,0.1-0.2,0.1-0.3c0-0.1,0-0.1-0.1-0.1c-0.1,0.1-0.2,0.1-0.3,0.1c-0.1,0-0.2,0-0.3-0.1C385.1,445.9,385,446,384.8,446.1z"/>
	<path class="st0" d="M311.7,545.7l1.2,1.9c0.4,0.5,0.9,1,1.4,1.4l-2.2-0.8c-2.3-2.8-4.2-4.3-5.6-4.4h-0.4c-1.4,0-2.9,0.3-4.5,1
		l-2.2,1l-2.2,0.9c-2.6,2-5.2,4.5-7.8,7.7l-3.3,4.1l-3.5,4.1c-0.2,1.1-0.7,2.4-1.7,3.7l-1,1.4c-0.3,0.6-0.6,1.1-0.8,1.5
		c-0.3-0.2-0.7-0.3-1-0.3h-0.4c0.9,0.6,1.4,1.1,1.4,1.4c0,0.3-0.5,0.6-1.4,0.6c0.3,0.3,0.5,0.6,0.5,0.9c0,0.3-0.1,0.5-0.4,0.8
		l-0.4,0.3l-0.1,0.4c-0.1,0.1-0.1,0.2-0.1,0.3c0,0.2,0.1,0.3,0.4,0.5c-0.1,0-0.3,0-0.5-0.1h-0.5v0.1c0.4,0.3,0.6,0.7,0.6,1
		c0,0.1,0,0.2-0.1,0.4l-0.4,0.5l-0.5,0.5v0.1l-0.8,1l-0.1,0.1v0.1l-0.1,0.3c-0.1,0.1-0.2,0.1-0.4,0.1l0.3,0.3v1.3
		c-0.6,0.6-1.2,2.2-1.7,4.9c0,0.1-0.1,0.1-0.3,0.1h-0.4c-0.2-0.1-0.3-0.1-0.5-0.1c-0.1,0-0.2,0-0.3,0.1c0.7,0.3,1,0.6,1,0.9v0.1
		c-0.1,0.3-0.5,0.5-1.2,0.5c0.4,0.3,0.6,0.4,0.6,0.5v0.3c0,0.1,0.1,0.2,0.4,0.4c-0.7,1.2-1.3,2.9-1.8,5l-0.5,2.7
		c-0.3,1.1-0.6,2.1-0.9,3c0,0.2-0.1,0.3-0.4,0.3l-0.3-0.1h-0.1c0.3,0.2,0.4,0.4,0.4,0.8v0.5c0,0.2,0.1,0.3,0.4,0.4
		c-0.3,0.9-0.7,1.9-1,3.2l-1,3.2c-0.9,2.7-2.1,4.8-3.9,6.3c-0.6,0-1.4-0.1-2.3-0.3v0.3c0,0.3-0.1,0.4-0.4,0.4h-0.3
		c-0.6-0.1-1.2-0.3-1.9-0.8l-0.3-0.3c-0.9-0.2-1.6-0.4-2.3-0.6c-0.9-0.3-1.7-0.6-2.2-1c-0.3-0.3-0.6-0.7-0.6-1
		c-1.4-0.7-2.1-1.4-2.1-2.1c0.2-0.1,0.3-0.3,0.4-0.6v-0.9l0.1-0.3l0.1-0.3l0.3-0.3c0.2-0.2,0.3-0.3,0.4-0.3h0.1
		c0-1.3,0.3-2.7,0.9-4.2l0.4-0.9l0.3-1c0.1-0.4,0.1-0.8,0.1-1.2c0-0.3,0-0.6-0.1-0.9v-0.1c0.9-1.5,1.7-3.4,2.4-5.5l0.9-3l0.8-3
		c1.3-5.2,2.4-9.1,3.5-11.6v-0.1c-0.1-0.4-0.1-0.9-0.1-1.3c0-1.2,0.2-2.7,0.5-4.5l0.5-2.8c0.2-1.1,0.3-2.1,0.3-3v-0.3
		c0.3-0.3,0.4-0.8,0.5-1.3l-0.1-1.4v-0.8c0-0.9,0.2-1.5,0.6-1.9v-2.2c0-1.5,0-3.3,0.1-5.1l0.4-3.5l0.4-3.5l-0.1-0.3l-0.5-0.5V541
		c0.3-0.4,0.4-0.9,0.4-1.4c0-0.3,0-0.5-0.1-0.8c-0.2-0.6-0.5-1.4-1-2.4v-0.1c0-0.3,0.3-0.5,0.8-0.6c0.4-0.1,0.9-0.1,1.3-0.1h0.8
		l0.8,0.1c0.7,0,1.2,0,1.7,0.1c0.6,0.2,1.6,0.3,3,0.5l1.5,0.3l1.4,0.3c0.6,0.2,1,0.3,1.2,0.5c0.7,0.8,1,1.5,1,2.3
		c0,0.4-0.1,0.8-0.3,1.2v0.1c0,0.1,0,0.2,0.1,0.3l0.1,0.1v0.3c0,0.1,0.1,0.2,0.4,0.3c-0.3,0.5-0.5,1.1-0.6,1.8l-0.1,1.7
		c0,1.5-0.3,2.7-0.8,3.6v0.3c0.2,0.3,0.3,0.7,0.3,1v0.4c0,0.6-0.3,1.1-0.8,1.4c-0.2,0.1-0.3,0.2-0.3,0.3c0,0.1,0,0.2,0.1,0.3
		l0.4,0.6c4.2-5.5,9.2-9.8,15.2-13.1c0.2,0.3,0.3,0.5,0.3,0.6c0,0.4-0.3,0.8-0.9,1l-1.3,0.4c-0.5,0.2-0.9,0.3-1.2,0.5l-2.3,2.1
		l-2.4,2.1c-1.9,1.6-3.2,3-3.9,4.1c-0.8,0.4-1.5,1.2-2.2,2.2l-0.8,1.3l-0.8,1.3l-0.3,0.6l-0.1,0.6v0.4c0,0.3,0.1,0.7,0.3,1v0.1
		c0,0.2,0,0.3-0.1,0.4c-0.3,0.3-0.4,0.6-0.5,1.2l-0.1,0.8v0.6l0.6-1.2c0.3,0.1,0.5,0.2,0.6,0.3l0.1,0.3c0.2,0.2,0.4,0.3,0.6,0.3
		c0-0.3-0.2-0.5-0.6-0.6l-0.4-0.3l-0.4-0.3c0.5-0.4,1-1,1.4-1.8l1.2-1.9c0.9-1.5,1.7-2.5,2.6-3l-0.4-0.4l-0.4-0.3
		c-0.3-0.2-0.5-0.3-0.8-0.3c0-0.1,0-0.1,0.1-0.1c0.2,0,0.3,0,0.5,0.1l0.6,0.4h0.4v-0.1c0-0.1,0-0.2,0.1-0.3l0.6-0.4
		c0.3-0.2,0.4-0.3,0.4-0.5c0-0.2-0.1-0.3-0.4-0.5c0.8,0.4,1.3,0.6,1.5,0.6c0.2,0,0.3,0,0.3-0.1c-0.3-0.1-0.7-0.3-1.3-0.6
		c0.3-0.4,0.7-0.9,1.3-1.4l0.9-0.6l0.8-0.6c0.9-0.9,1.4-1.8,1.4-2.8v-0.5c0.2,0,0.3,0,0.4,0.1l0.3,0.3c0.2,0.3,0.3,0.4,0.5,0.4
		c0-0.2,0.1-0.3,0.3-0.4l0.4-0.4c0.3-0.2,0.4-0.3,0.4-0.5c0-0.1,0-0.2-0.1-0.3c-0.1,0.1-0.2,0.1-0.4,0.1c-0.2,0-0.4,0-0.6-0.1
		c0.3-0.3,0.8-0.5,1.3-0.5h0.4l-0.1,0.1l-0.3,0.1v0.1l0.1,0.1c0.6-0.1,1-0.3,1.3-0.5c0.3-0.2,0.4-0.4,0.4-0.8v-0.1
		c-0.2,0-0.3,0-0.4,0.1l-0.1,0.3c0,0.1-0.1,0.1-0.3,0.1c-0.1,0-0.2,0-0.4-0.1c0.1-0.2,0.3-0.3,0.6-0.4l0.4-0.1
		c0.1-0.1,0.2-0.2,0.3-0.3c0.3,0.3,0.6,0.4,0.6,0.4h0.1l0.1-0.1c0-0.1,0-0.1-0.1-0.1l-0.3-0.1l-0.4-0.1c0.2-0.2,0.4-0.3,0.6-0.3h0.3
		l0.6,0.3h0.5c-0.1-0.1-0.1-0.2-0.1-0.3c0-0.1,0.2-0.2,0.5-0.3c0.3,0,0.4,0,0.5-0.1c0-0.2-0.2-0.4-0.5-0.8c0.3,0.3,0.7,0.5,1.2,0.5
		c0.1,0,0.2,0,0.4-0.1l0.5-0.3l0.5-0.1l-0.3-0.1l-0.3-0.3c-0.3-0.2-0.4-0.3-0.4-0.5l0.4,0.1l0.5,0.3c0.3,0.1,0.4,0.1,0.5,0.1
		c0.2,0,0.3,0,0.3-0.1c-0.3-0.2-0.4-0.3-0.4-0.4c0-0.2,0.1-0.3,0.3-0.3h1l-0.1,0.1l-0.3,0.1c-0.1,0-0.1,0-0.1,0.1l0.1,0.1
		c0.9-0.5,2-0.9,3.3-1c1.1-0.3,2.3-0.4,3.5-0.4c-0.7-0.3-1.5-0.4-2.3-0.4c-0.9,0-1.8,0.1-2.8,0.4l-2.4,0.6c-0.9,0.2-1.7,0.3-2.3,0.3
		l0.4,0.5l0.4,0.4c0.1,0.1,0.1,0.2,0.1,0.4c0,0.1-0.1,0.2-0.4,0.3c-0.3-0.2-0.4-0.3-0.4-0.4v-0.1l0.1-0.1c0-0.2-0.2-0.3-0.5-0.4
		c-0.3,0.1-0.5,0.1-0.6,0.1c-0.4,0-0.8-0.1-1.2-0.4c3.3-1.5,6.2-2.3,8.7-2.3c1.7,0.1,3.3,0.6,4.6,1.4c1.5,0.8,3,2,4.4,3.7
		c0.2,0,0.6,0.5,1.3,1.4l0.8,1.2C311.5,545.4,311.6,545.6,311.7,545.7z M268.4,588.2c0.2,0,0.3-0.1,0.4-0.3c0.1-0.1,0.1-0.2,0.1-0.3
		c0-0.1,0-0.1-0.1-0.1L268.4,588.2z M270.9,580.8l-0.3,0.5l0.4,0.1c0.1-0.1,0.1-0.2,0.1-0.4v-0.3H270.9z M270.8,581.9
		c0.3,0.1,0.4,0.1,0.5,0.1h0.1l0.1-0.1l0.1-0.1H271C270.9,581.9,270.8,581.9,270.8,581.9z M272,577.1l-0.1-0.1l-0.1,0.1H272z
		 M273.7,577.2c0-0.1,0-0.1,0.1-0.1c-0.2-0.1-0.3-0.2-0.5-0.3c0,0.1,0,0.1-0.1,0.1C273.4,577,273.5,577.1,273.7,577.2z M274.6,571.9
		c-0.3-0.1-0.5-0.1-0.6-0.1c-0.2,0-0.3,0.1-0.3,0.3c0.2,0.2,0.3,0.3,0.5,0.3h0.1l0.1-0.3L274.6,571.9z M274.2,567.7
		c0.2,0,0.3,0,0.3-0.1c0-0.1,0-0.2-0.1-0.4c0.1-0.2,0.1-0.3,0.1-0.4c0-0.1,0-0.1-0.1-0.1l-0.1,0.1c-0.2,0.1-0.3,0.2-0.4,0.4v0.5
		H274.2z M273.8,575.1c0.3,0.2,0.6,0.3,0.8,0.3l0.1-0.1v-0.1c-0.3-0.1-0.4-0.1-0.5-0.1l-0.1,0.1H273.8z M275.3,574.5
		c-0.3-0.2-0.5-0.3-0.6-0.3l-0.3,0.1l-0.3-0.1l0.3,0.3l0.6,0.3L275.3,574.5z M275.4,561.5c-0.2-0.1-0.3-0.1-0.4-0.1v0.1l0.1,0.3
		c0,0.1,0,0.1-0.1,0.1l0.3,0.1c0.1,0,0.1,0,0.1-0.1V561.5z M275.1,573.6c0.3,0.1,0.5,0.1,0.6,0.1h0.1l0.4,0.1c0-0.1-0.1-0.2-0.3-0.3
		l-0.4-0.1h-0.4C275.2,573.5,275.1,573.5,275.1,573.6z M276.1,567.7c0.2,0,0.3,0,0.3-0.1l0.3-0.3l0.1-0.1c0.1,0,0.2,0,0.3,0.1
		c0-0.1-0.2-0.2-0.5-0.4l-0.5-0.1l-0.5-0.1l0.1,0.3l0.1,0.3c0.1,0.1,0.1,0.2,0.1,0.3l-0.1,0.1C275.9,567.6,276.1,567.7,276.1,567.7z
		 M276.3,563.2c0.2,0.1,0.3,0.1,0.4,0.1c0-0.1-0.1-0.2-0.3-0.4l-0.3-0.3c0,0.1,0,0.2,0.1,0.4V563.2z M277.6,561.9
		c0-0.1,0-0.1,0.1-0.1l-0.8-0.4l-0.1,0.1L277.6,561.9z M277,568.7h0.4v-0.4c0.1-0.1,0.2-0.2,0.3-0.3h-0.3c-0.2,0-0.3,0-0.4,0.1
		l-0.1,0.4L277,568.7z M278.2,570.5v-0.1l-0.4-0.3l-0.4-0.1c-0.1,0-0.1,0.1-0.1,0.3l0.3,0.1h0.3C278,570.5,278.1,570.5,278.2,570.5z
		 M279.2,564.9l0.6-0.4l0.5-0.6c0.1-0.2,0.1-0.3,0.1-0.5c0-0.3-0.1-0.5-0.4-0.8l-0.3,0.6l-0.3,0.5
		C279.4,564.1,279.2,564.5,279.2,564.9z M279.5,554.3c0,0.1,0.1,0.2,0.3,0.3l0.1,0.1l0.3,0.1c0-0.1-0.1-0.2-0.3-0.3l-0.1-0.1
		L279.5,554.3z M280.3,559.2l-0.4-0.1v0.1l0.3,0.3l0.4,0.1v0.1h0.1l-0.1-0.1v-0.1l-0.1-0.1h-0.1V559.2z M281.2,561.4
		c-0.2,0-0.3,0.1-0.3,0.3l-0.1,0.4c-0.1,0.1-0.2,0.1-0.4,0.1h0.4c0.3,0,0.5-0.1,0.5-0.4v-0.4H281.2z M280.9,562.7l-0.1-0.1l-0.3-0.1
		l-0.1-0.1c0,0.1,0,0.2,0.1,0.3l0.3,0.1H280.9z M281.9,557.2c-0.2-0.2-0.3-0.3-0.5-0.3c-0.2,0-0.3,0.1-0.5,0.3
		c0.3,0.2,0.6,0.3,0.8,0.3h0.3V557.2z M281.7,563.2c0.2,0,0.3,0,0.3-0.1l-0.1-0.1c-0.1-0.1-0.3-0.2-0.5-0.3l-0.1,0.1l0.1,0.1v0.1
		C281.5,563.1,281.6,563.2,281.7,563.2z M284.6,556.6l0.3-0.1l0.3-0.1c0.1,0,0.1,0,0.1-0.1v-0.1c-0.9,0.3-1.8,1-2.4,1.9l-0.8,1.3
		l-0.8,1.3c0.7-0.3,1.3-0.9,1.9-1.8l0.6-1L284.6,556.6z M282.7,550.6c0.3,0.1,0.5,0.1,0.6,0.1c0.2,0,0.3-0.1,0.3-0.3
		c-0.2-0.2-0.3-0.3-0.4-0.3h-0.1l-0.3,0.3L282.7,550.6z M284.4,553.4l0.3,0.1l-0.4-0.3L284.4,553.4z M285.5,554.8
		c0.3,0.2,0.6,0.3,0.6,0.3c0.1,0,0.1,0,0.1-0.1l-0.1-0.3c0-0.2,0-0.3,0.1-0.3h-0.1c-0.1,0-0.2,0-0.3,0.1l-0.1,0.1L285.5,554.8z
		 M286.7,554.1l-0.1-0.1h-0.1l-0.3-0.1c0,0.1,0.1,0.2,0.3,0.3H286.7z M286.6,548.8c-0.1,0.1-0.2,0.1-0.3,0.1
		c0.2,0.1,0.3,0.2,0.5,0.3l0.1-0.1C286.8,549,286.6,548.9,286.6,548.8z M287.8,549.7c-0.7,0.1-1.2,0.6-1.5,1.4c0.4,0,0.8-0.2,1-0.5
		l0.3-0.4L287.8,549.7z M286.6,553.6h0.3c0.6,0,1.1-0.2,1.4-0.6l0.4-0.6l0.3-0.5c-0.4,0-0.9,0.2-1.3,0.6l-0.6,0.6L286.6,553.6z
		 M289.2,548.8c-0.3-0.1-0.6-0.1-0.8-0.1c-0.1,0.1-0.1,0.2-0.1,0.3v0.3h0.1c0.2,0,0.3,0,0.4-0.1l0.1-0.1L289.2,548.8z M289.4,551.6
		c0.1,0,0.1,0,0.1-0.1c-0.1-0.1-0.1-0.2-0.1-0.3h-0.1c-0.1,0-0.2,0-0.4,0.1C289,551.5,289.2,551.6,289.4,551.6z M290.3,547.5
		c-0.3-0.1-0.5-0.1-0.8-0.1l-0.3,0.1v0.1c0.2,0.1,0.3,0.1,0.5,0.1h0.1l0.1-0.1L290.3,547.5z M290.1,550c0.2,0.1,0.3,0.1,0.5,0.1
		c0.2,0,0.3-0.1,0.4-0.3v-0.3c0.1-0.2,0.2-0.3,0.3-0.3c-0.2-0.1-0.3-0.1-0.4-0.1c-0.1,0-0.2,0-0.3,0.1l-0.1,0.4
		C290.4,549.8,290.3,549.9,290.1,550z M291.3,546.6c-0.1-0.1-0.2-0.1-0.3-0.1c-0.1,0-0.2,0-0.3,0.1h-0.1l-0.3,0.1L291.3,546.6z
		 M291,548.8c0.2,0.1,0.3,0.1,0.5,0.1c0.3,0,0.5-0.1,0.8-0.3c0.2-0.1,0.3-0.2,0.3-0.4c0-0.2-0.1-0.3-0.4-0.5l-0.3,0.4l-0.3,0.3
		C291.5,548.6,291.3,548.7,291,548.8z M294.8,546.2c0.2,0,0.3,0,0.4-0.1l-0.1-0.3h-0.1c-0.2,0.1-0.3,0.2-0.4,0.3
		c-0.3,0.1-0.7,0.3-1.2,0.6l-0.4,0.4l-0.5,0.5l0.4,0.1h0.3c0.3,0,0.6-0.2,0.8-0.6l0.4-0.5C294.3,546.4,294.5,546.3,294.8,546.2z
		 M296.1,545c0.2,0.2,0.3,0.3,0.4,0.3l0.3-0.1l-0.3-0.1l-0.3-0.1L296.1,545z M298.5,543.8l0.5,0.1c0.2,0,0.3,0,0.4-0.1
		c0-0.1,0-0.2-0.1-0.4c-0.1-0.1-0.2-0.1-0.3-0.1l-0.1,0.1l-0.1,0.1c-0.1,0.1-0.2,0.1-0.3,0.1c-0.1,0-0.2,0-0.3-0.1
		C298.3,543.7,298.4,543.8,298.5,543.8z M303.1,542.1c0.3,0.1,0.5,0.1,0.6,0.1h0.4l0.4-0.1h0.5c-0.3-0.1-0.5-0.1-0.6-0.1H304
		l-0.5,0.1H303.1z"/>
	<path class="st0" d="M361.7,562.7c0.3,0.3,0.6,0.8,0.8,1.4c0.1,0.3,0.1,0.5,0.1,0.6c0,0.2,0,0.3-0.1,0.4c-0.4,0.2-1,0.8-1.7,1.9
		c-0.7,1.1-1.7,2.4-3,4c-1.6,2.2-2.7,4.1-3.1,5.7l-0.1,0.3c-1.7,2-3.8,4.6-6.3,7.8l-3.1,4.1l-3.1,4.1c-2.7,3.6-5.1,6.3-7.1,8.1
		l-0.5,0.5l-0.3,0.3l-0.5,0.4l-0.9,0.8l-0.9,0.8l-1.9,1.3l-0.9,0.5l-1,0.4c-1.3,0.4-2.6,0.6-4,0.6c-1.4-0.1-2.7-0.5-3.9-1.3
		l-0.4-0.1c-2.3-0.9-4.2-2.8-5.7-5.7l-0.9-1.9l-0.4-1.2l-0.1-0.5l-0.1-0.4c-0.1-0.4-0.2-1.1-0.3-1.9c-0.1-0.7-0.1-1.3-0.1-1.9
		l0.1-1.4l0.1-1.4l0.4-2.7c0.3-1.7,0.4-3.3,0.5-4.9l0.1-0.3c0.3-0.7,0.6-1.5,0.8-2.3l0.1-2.2c0.2-1.9,0.6-3.3,1.3-4.2l0.1-0.3
		c0.3-3.3,1.1-7.1,2.2-11.2c0.8-3.1,1.8-6.7,3.2-10.8v-0.5l-0.3-0.8c0-0.3,0-0.5,0.1-0.6c0.6-0.9,1-2,1.2-3.3l0.3-1.9l0.1-2.2
		c0-0.4,0.3-0.7,1-0.9h0.4c0.5,0,1,0.1,1.5,0.4l0.6,0.3c0.6,0.2,1.1,0.4,1.4,0.8c0.5,0.4,1.3,1,2.3,1.7l1.3,0.8l1.2,0.8
		c0.4,0.3,0.7,0.6,0.8,0.9c0.2,0.7,0.3,1.3,0.3,1.9c0,1.2-0.3,2.2-0.9,3.1v1l-0.1,0.3v0.1c0,0.1,0.1,0.2,0.3,0.3
		c-0.4,0.8-0.8,1.6-1.2,2.6l-0.8,2.6c-0.6,2.1-1.3,3.8-2.1,5v1.2c0,0.5,0,1-0.1,1.4c-0.3,0.8-0.6,1.4-1.2,1.8
		c-0.3,0.2-0.4,0.4-0.4,0.6v0.1c0.1,0.4,0.1,0.9,0.1,1.3c0,0.9-0.3,2-0.8,3.2l-0.4,1l-0.4,0.9c-0.1,0.3-0.1,0.7-0.1,1.2
		c0,0.3,0,0.7,0.1,1c0,0.3,0,0.5-0.1,0.6c-0.4,0.5-0.7,1.3-0.9,2.3l-0.3,1.3c-0.1,0.4-0.2,0.8-0.4,1.2c0.1,0.3,0.4,0.4,0.9,0.4
		l-0.3,0.3l-0.4,0.1c-0.3,0.2-0.5,0.4-0.5,0.8v0.1c0.1,0.3,0.1,0.5,0.1,0.6c0,0.5-0.1,1-0.4,1.5l-0.4,1l-0.3,0.9v0.3
		c0.1,0.4,0.1,0.9,0.1,1.4c0,0.4,0,0.9-0.1,1.3v1.2l-0.1,0.6v0.8c0,0.9,0.2,1.5,0.6,1.7c0.1,0,0.1,0,0.1,0.1l-0.1,0.6l0.3,0.5
		c0.1,0.2,0.2,0.3,0.3,0.3c0.2,0,0.3-0.1,0.5-0.3c0.1-0.1,0.2-0.1,0.3-0.1h0.1c0.2,0.3,0.4,0.5,0.8,0.5c0.3-0.1,0.5-0.3,0.8-0.5
		l0.6-0.6l0.4-0.1l0.3-0.3l0.4-0.1l0.1-0.1c0-0.1,0-0.2-0.1-0.3l-0.1-0.3l0.1-0.4c0.9-0.5,2.1-1.5,3.5-3.1l1.5-1.8
		c0.7-0.7,1.3-1.2,1.8-1.7c0.2-0.1,0.3-0.3,0.3-0.5c0.1-0.4,0.2-0.8,0.4-1.2l0.9-1c0.7-0.9,1.1-1.6,1.2-2.3h0.4l0.3-0.1
		c0.1-0.1,0.2-0.1,0.3-0.1c0.1,0,0.2,0,0.3,0.1c0.3-1,1-2.3,2.2-3.7l1.3-1.7c0.5-0.7,0.9-1.3,1-1.9c0.1-0.2,0.2-0.3,0.4-0.4
		c0.3-0.3,0.7-0.6,1.2-1.2l1-1.4c0.8-1.3,1.5-2.1,2.3-2.3l-0.1-0.1l-0.1-0.1h-0.1v-0.1c0.3-0.5,0.5-1,0.8-1.4l0.8-1.2
		c0.7-0.9,1.6-2.2,2.6-3.9c1.1-1.6,2.3-3.2,3.7-4.8l0.4,0.1l0.1-0.3c0.3-0.4,0.6-0.6,1.2-0.6h0.3
		C358.1,556.7,359.5,558.7,361.7,562.7z M317.2,595.7c0.3,0.5,0.5,0.8,0.6,0.8c-0.5-2.2-0.8-5-0.8-8.2c0-1.3,0-2.6,0.1-4
		c0.3-4.5,0.8-9,1.7-13.5c-1.5,5.6-2.3,10.7-2.3,15.5c0,1.1,0,2.2,0.1,3.2v1.9c0,0.9,0,1.7,0.1,2.3
		C316.9,594.5,317.1,595.2,317.2,595.7z M326.9,602.4c0.5-0.1,0.8-0.2,0.9-0.3c-2.1-0.2-3.7-0.6-4.9-1.3c-1.4-0.9-2.4-2.3-3.1-4.2
		c-0.8-2.3-1.2-5.2-1.2-8.6c0-1.3,0-2.7,0.1-4.1c-0.4,2.1-0.6,4.2-0.6,6.2c0,0.9,0,1.7,0.1,2.4c0.2,1.8,0.5,3.3,1,4.4
		c0.6,1.6,1.5,2.8,2.6,3.6l0.6,0.5l0.8,0.5l0.9,0.4l0.9,0.3l1,0.3H326.9z M319.2,580.3l0.5-2.3c0.4-1.7,0.6-3.1,0.6-4.1v-0.5
		c-0.2,0.5-0.4,1.3-0.6,2.4l-0.4,1.3l-0.3,1.3c-0.3,1.2-0.4,2.2-0.4,3c0,0.6,0.1,1.1,0.3,1.5C318.9,582,319,581.1,319.2,580.3z
		 M320.8,562l-0.4,1.3l-0.5,1.4c-0.4,1.4-0.6,2.5-0.6,3.3c0,0.4,0,0.8,0.1,1c0.1-0.8,0.3-1.6,0.5-2.6l0.8-2.3
		c0.6-1.7,0.9-3.1,0.9-4.1v-0.4C321.5,560.2,321.3,561,320.8,562z M320.1,572.9c0.2,0,0.3-0.2,0.4-0.5v-0.8l0.5-1.2l0.4-1.3
		c0.2-0.6,0.3-1.2,0.3-1.7c0-0.3,0-0.6-0.1-0.9c-0.1,0.4-0.2,0.9-0.3,1.3l-0.4,1c-0.3,0.8-0.4,1.5-0.4,2.2v0.5h-0.1
		c0,0.3-0.1,0.4-0.3,0.4V572.9z M321.9,559.5c0.3-0.1,0.4-0.5,0.5-1.3l0.5-1.2l0.5-1.3c0.3-0.8,0.4-1.4,0.4-1.9c0-0.3,0-0.5-0.1-0.6
		c-0.1,0.4-0.2,0.9-0.4,1.3l-0.4,1c-0.3,0.7-0.5,1.4-0.5,2.2v0.5h-0.3c0,0.2-0.1,0.3-0.3,0.4V559.5z M322.5,565.1l0.1-0.5
		c0.1-0.2,0.1-0.3,0.1-0.4c0-0.2-0.1-0.3-0.3-0.4l-0.1,0.4l-0.3,0.6c-0.1,0.2-0.1,0.3-0.1,0.4c0,0.3,0.1,0.4,0.4,0.4h0.1V565.1z
		 M323.1,562.5v-0.6c-0.1,0-0.2,0-0.4,0.1c0,0.2,0,0.3-0.1,0.3c0,0.3,0,0.5-0.1,0.6c0.2,0,0.3,0,0.4-0.1
		C323,562.6,323,562.5,323.1,562.5z M324.2,558.3l-0.3,0.5c-0.2,0.3-0.3,0.8-0.3,1.3l0.6-0.1v-0.6l0.3-0.6c0.1-0.2,0.1-0.3,0.1-0.4
		c0-0.3-0.1-0.4-0.4-0.4L324.2,558.3z M324.7,550.7l-0.3,0.6c-0.1,0.3-0.1,0.4-0.1,0.5c0,0.2,0.1,0.3,0.3,0.3h0.1v-0.5l0.3-0.5
		c0.1-0.2,0.1-0.3,0.1-0.4c0-0.2-0.1-0.3-0.3-0.4C324.8,550.4,324.8,550.6,324.7,550.7z M324.9,548.9v0.5h0.4c0-0.3,0.1-0.4,0.3-0.4
		v-0.5h-0.4C325.2,548.7,325.1,548.8,324.9,548.9z M326.7,545l-0.3,0.4c-0.2,0.4-0.3,0.9-0.4,1.3l0.6-0.1v-0.6l0.3-0.6
		c0.1-0.2,0.1-0.3,0.1-0.5c0-0.1-0.1-0.2-0.3-0.3L326.7,545z M326.9,530.6v-0.3c0-0.2,0-0.3,0.1-0.4c0.5-0.9,0.9-2,1.2-3.3l0.1-2.1
		l0.3-2.1c0-0.4,0.3-0.7,0.9-0.9h0.4c0.5,0,1,0.1,1.5,0.4l0.5,0.3c0.5,0.2,0.9,0.4,1.3,0.6c0.4,0.4,1.2,0.9,2.2,1.5l1.2,0.8l1.2,0.8
		c0.3,0.3,0.6,0.6,0.6,0.9c0.1,0.3,0.1,0.5,0.1,0.8c0,0.9-0.2,1.8-0.6,3c-0.2,0.6-0.4,1.2-0.6,1.8c-0.3,0.4-0.5,0.8-0.8,1.2v0.6
		l-0.3,0.1c-0.3,0.2-0.7,0.3-1,0.3c-0.5,0-1.1-0.1-1.7-0.4l-1.3-0.6c-0.5-0.3-1-0.4-1.5-0.4c-0.8-0.1-1.4-0.2-1.9-0.3l-1.7-1.3v-0.3
		L326.9,530.6z"/>
	<path class="st0" d="M416.1,565.5c0,0.4-0.3,0.9-0.9,1.5h-0.1c-0.7,0.3-1.8,1.3-3.5,2.8c-1.6,1.5-3.5,3.1-5.7,4.6l-3,2.1l-2.8,2.1
		c-5.1,3.5-8.8,6.3-10.9,8.3l-0.5,0.4c-4.1,2.5-7.9,4.9-11.4,7.2c0.5,2.1,0.8,4.3,0.8,6.4c0,0.9,0,1.7-0.1,2.6c-0.2,2-0.5,4.1-1,6.4
		l-0.8,3l-0.9,2.8c-0.1,0.3-0.3,0.7-0.5,1c-0.3,0.3-0.6,0.9-1.2,1.7l-1.5,1.9c-1.3,1.7-2.2,3-2.7,4c-0.3,0.7-0.8,1.2-1.3,1.5
		l-2.2,1.3l-2.3,1.3c-1.7,0.9-3.5,1.5-5.3,1.8c-1.2,0.3-2.4,0.4-3.6,0.4c-0.6,0-1.2,0-1.9-0.1c-1-0.2-1.9-0.4-2.7-0.8
		c-0.9-0.3-1.6-0.8-2.3-1.4c-0.3-0.2-0.5-0.3-0.6-0.3h-0.6l-0.3-0.1c-0.3-0.1-0.5-0.3-0.8-0.5l-0.6-0.8l-0.5-0.8l-0.5-0.8l-0.4-0.9
		c-0.3-0.7-0.6-1.3-0.6-1.8l-0.3-0.9l-0.1-0.9c-0.1-0.7-0.1-1.4-0.1-2.2c0-1.5,0.2-3,0.6-4.6c0.5-2,1.3-3.9,2.4-5.8
		c1.2-1.9,2.5-3.4,3.9-4.5c0.3-0.3,0.5-0.6,0.8-1c0.7-1.2,2-2.6,3.9-4.1l2.2-1.8c0.9-0.8,1.5-1.5,2.1-2.2h0.5l0.5-0.1
		c0.2-0.1,0.3-0.1,0.5-0.1c0.1,0,0.2,0,0.3,0.1c0.9-1,2.1-2.1,3.3-3.1l1.3-1c-0.7-1.5-1.5-2.9-2.4-4.2l-0.1-0.5
		c-0.4-1.2-1.1-2.5-1.9-3.9l-1.3-1.8l-1.4-1.8c-1.2-1.6-2.1-3-2.7-4.1c-0.9-1.8-1.5-3.6-1.8-5.3l-0.3-0.9c-0.9-2.5-1.3-4.9-1.3-7.3
		v-0.8c0-2.5,0.4-4.9,1.3-7.2c0.9-2.3,2.2-4.6,4.1-6.8c1.5-1.6,3.1-3.3,5-4.9c3.5-2.9,7.4-5.2,11.6-6.9c2.6-1,4.9-1.7,6.9-1.9
		c0.9-0.2,1.8-0.3,2.6-0.3c0.9,0,1.7,0.1,2.4,0.3c1.6,0.3,3.1,0.8,4.5,1.5l1.4,0.8c0.3,0.2,0.7,0.4,1,0.6c0.3,0.2,0.7,0.4,1,0.6
		c0.6,0.5,1.1,1.2,1.4,1.9c0.9,2,1.3,4,1.3,6s-0.5,4.2-1.4,6.5c-0.5,1.3-1.2,2.8-2.1,4.5l-0.9,1.9l-0.8,1.7
		c-0.4,0.9-1.1,1.4-1.9,1.5h-0.5c-0.7,0-1.2-0.2-1.7-0.6l-0.5-0.5c-0.6-0.3-1-0.6-1.2-1.2c-0.3-0.9-0.8-1.8-1.5-3l-0.9-1.4l-0.9-1.5
		c-0.1-0.3-0.1-0.6-0.1-0.9c0-0.3,0-0.6,0.1-0.9l0.4-1.4l0.5-1.3l0.4-1.2l0.1-0.5V545c0-0.1,0.1-0.3,0.4-0.6v-0.1h-0.1l-0.6,0.1
		c0.1-0.1,0.1-0.2,0.1-0.3c0-0.1,0-0.1-0.1-0.1c-0.1-0.2-0.2-0.3-0.3-0.3c-0.1-0.1-0.2-0.1-0.4-0.1c-0.2,0-0.3,0-0.5,0.1
		c-0.5,0.1-1.1,0.3-1.8,0.5c-1.2,0.4-2.6,1-4.2,1.7l-2.2,1.2l-2.3,1c-0.3,0.2-0.5,0.3-0.8,0.5c-0.9,1.1-1.7,2.1-2.4,2.8
		c-1.1,1-2.1,1.8-3.1,2.2c-0.5,0.3-0.8,0.6-0.9,1l-0.4,1.7l-0.3,1.5c-0.3,1.2-0.6,2.2-0.6,3v0.8c0,2.3,0.6,4.2,1.9,5.7
		c0.3,0.3,0.4,0.6,0.5,1.2c0.2,1,0.9,2.4,2.1,4.2l1.5,2.2c0.5,0.9,0.9,1.8,1.3,2.4c0.2,0.2,0.3,0.3,0.5,0.3c0.3,0,0.5-0.1,0.6-0.4
		l0.1,0.6l0.1,0.6v0.4c0,0.7,0.2,1.3,0.6,1.8c0.7,0.9,1.3,1.9,1.9,3.1l0.5-0.5c0.3-0.2,0.6-0.3,0.9-0.5c0.9-0.3,1.8-0.9,3-1.7l3-1.9
		c2.6-1.8,4.5-2.9,5.9-3.3l0.1-0.1c0-0.1-0.1-0.1-0.3-0.1h-0.1v-0.3c0.9-0.7,1.8-1.4,2.7-2.1l1.3-0.8l1.2-0.9c1.9-1.3,3.6-2.6,5-3.9
		h-0.6c0.6-0.4,1.2-0.9,1.7-1.3l0.1,0.4c0.1-0.2,0.2-0.3,0.4-0.3l0.6-0.3c0.4-0.3,0.6-0.6,0.6-0.9V565l-0.6,0.4l-0.5,0.3l0.3-0.3
		v-0.1l2.7-1.9l2.4-2.2l0.6-0.6c2.2-0.8,4.2-2,5.8-3.6h0.6l0.1-0.3c0.6-0.7,1.3-1,2.2-1c0.9,0,1.8,0.6,2.7,1.9
		c0.9,1.3,1.1,2.8,0.7,4.5C416.3,563.7,416.1,564.9,416.1,565.5z M362.9,615.7c2.7-4.4,4-8.9,4-13.7l-1.9,1.4l-1.9,1.4
		c-1.4,1.1-2.6,2.1-3.6,3.1l-1.7,1.7l-0.8,0.8l-0.4,0.4c-0.2,0.2-0.3,0.3-0.4,0.4c-0.7,0.9-1.3,1.9-1.9,3.1c-0.6,1-1,2-1.2,3
		c-0.1,0.4-0.1,0.8-0.1,1s0,0.5,0.1,0.6v0.3l0.1,0.1c0.1,0.1,0.1,0.2,0.1,0.3l0.3,0.1c0.3,0.1,0.7,0.1,1,0.1h0.6
		c0.7,0,1.4-0.1,2.1-0.3c1.7-0.3,3.5-1.5,5.4-3.5L362.9,615.7z M357.3,566.7c0.1-0.1,0.1-0.2,0.1-0.3c0-0.2,0-0.3-0.1-0.4l-0.3-0.5
		l-0.1-0.5l-0.1-1.5l-0.1-1.7l-0.1-1.7c-0.1-0.5-0.3-1-0.5-1.4c0.1,0.2,0.1,0.4,0.1,0.8c0,0.3,0,0.6-0.1,0.9v1.4l0.1,0.8l0.1,0.8
		c0.1,0.6,0.3,1.2,0.6,1.7l-0.1,0.3c0.1,0.1,0.1,0.2,0.1,0.3c0,0.1,0,0.2-0.1,0.3L357.3,566.7z M356.5,556.3v0.8
		c0,0.1,0,0.1,0.1,0.1h0.3v-0.6l0.1-0.6c0.1-0.3,0.1-0.5,0.1-0.6c0-0.2-0.1-0.3-0.3-0.3l-0.1,0.5L356.5,556.3z M357.3,553
		c-0.1,0.3-0.1,0.5-0.1,0.8c0.1,0,0.2,0,0.4-0.1c0-0.3,0.1-0.4,0.3-0.4c0-0.3,0-0.5,0.1-0.8h-0.1l-0.3,0.1
		C357.5,552.9,357.4,553,357.3,553z M357.3,567.2l0.4,1.4l0.5,1.4c0.3,1.3,0.7,2.4,1.2,3.2c0.9,2.4,1.9,3.9,2.8,4.6
		c-0.9-1.3-1.8-3.1-2.6-5.5l-1-2.7C358.1,568.7,357.7,567.9,357.3,567.2z M359.5,565.8c-0.1-0.2-0.2-0.4-0.3-0.6l-0.1-0.8
		c-0.1-0.4-0.3-0.6-0.5-0.6h-0.1l0.1,0.5v0.6c0.1,0.4,0.3,0.9,0.5,1.4L359.5,565.8z M360.2,548.5l-0.4,0.4c-0.3,0.4-0.6,0.9-0.9,1.4
		h0.6l0.4-0.6l0.5-0.8c0.2-0.3,0.3-0.5,0.3-0.6c0-0.1,0-0.2-0.1-0.3L360.2,548.5z M359.6,568.7c0.1,0.1,0.1,0.2,0.1,0.3
		c0,0.1,0,0.2-0.1,0.3c0.2,0.2,0.3,0.3,0.4,0.5c0.1-0.1,0.2-0.2,0.3-0.3V569c-0.2-0.2-0.3-0.4-0.4-0.6
		C359.8,568.5,359.7,568.6,359.6,568.7z M361.5,571.9l-0.4-0.6c-0.2-0.4-0.3-0.6-0.4-0.6h-0.1c0,0.1,0,0.3,0.1,0.5l0.3,0.8
		c0.2,0.4,0.3,0.6,0.5,0.6c0.1,0,0.2-0.1,0.3-0.3C361.7,572.2,361.6,572.1,361.5,571.9z M364.7,579.5l-0.3-0.8l-0.3-0.6l-0.6-1.7
		c-0.5-1.2-1.1-2-1.7-2.3c0.2,0.3,0.4,0.8,0.6,1.3l0.5,1.3C363.5,577.7,364.1,578.6,364.7,579.5l-0.1,0.1c0.1,0.1,0.1,0.2,0.1,0.4
		v0.1l0.6,0.8c0.1-0.1,0.1-0.2,0.1-0.3c0-0.2,0-0.3-0.1-0.4L364.7,579.5z M362.9,579.8l2.2,4.6l2.2,5c1.7,4,2.9,7.7,3.5,10.9
		c0.1,0.4,0.1,1.2,0.1,2.2v1.4l-0.1,1.3c-0.1,1.5-0.1,2.4-0.1,3v0.4c0.4-2,0.6-3.8,0.6-5.5v-1.4c-0.2-2.5-0.6-5-1.4-7.4
		c-0.7-2.1-1.7-4.6-3.1-7.3l-1.8-3.6L362.9,579.8z M371.2,593.1c0.9,3.7,1.3,7,1.3,10v0.8c-0.2,3.9-1.1,7.8-2.7,11.7
		c-0.3,0.4-0.6,1.1-1.2,2.1l-0.8,1l-0.8,1.2c-1.2,1.6-1.8,2.6-1.8,3v0.1c3.5-3.9,5.9-8.3,7.1-13.2c0.4-2.1,0.6-4,0.6-5.9
		c0-0.9,0-1.7-0.1-2.4C372.6,598.8,372,596,371.2,593.1z M370.8,591.8c-0.4-0.9-0.9-1.8-1.3-3l-0.9-2.8c-0.9-2.1-1.8-3.7-2.7-4.8
		c0.3,0.6,0.7,1.5,1.2,2.6l1.2,3.1C369.2,589.5,370.1,591.1,370.8,591.8z"/>
</g>
</svg>
