<?xml version="1.0" encoding="UTF-8"?>
<svg width="100pt" height="100pt" version="1.1" viewBox="0 0 100 100" xmlns="http://www.w3.org/2000/svg">
 <path d="m85 30c0-0.011719-0.007812-0.019531-0.007812-0.03125-0.003907-0.14062-0.023438-0.27734-0.074219-0.41406-0.003907-0.007813-0.007813-0.015626-0.011719-0.023438-0.011719-0.03125-0.035156-0.058594-0.050781-0.089844-0.050781-0.10156-0.11328-0.19531-0.1875-0.28125-0.03125-0.035156-0.066407-0.0625-0.10156-0.09375-0.078125-0.070312-0.16406-0.125-0.25391-0.17188-0.039062-0.019531-0.078125-0.042969-0.12109-0.058593-0.14062-0.050782-0.28516-0.085938-0.44141-0.085938h-67.5c-0.15625 0-0.30078 0.035156-0.4375 0.089844-0.042969 0.015625-0.082031 0.039062-0.12109 0.058594-0.09375 0.046874-0.17578 0.10156-0.25391 0.17187-0.035156 0.03125-0.070312 0.058594-0.10156 0.09375-0.074219 0.082032-0.13672 0.17578-0.1875 0.27734-0.015626 0.03125-0.039063 0.058594-0.050782 0.089844-0.003906 0.007812-0.007812 0.015625-0.011718 0.023438-0.050782 0.13672-0.070313 0.27344-0.074219 0.41406-0.003907 0.011719-0.011719 0.019531-0.011719 0.03125v40c0 0.16406 0.035156 0.32422 0.097656 0.47656 0.12891 0.30469 0.37109 0.55078 0.67578 0.67578 0.15234 0.0625 0.3125 0.097656 0.47656 0.097656h67.5c0.16406 0 0.32422-0.035156 0.47656-0.097656 0.30469-0.12891 0.54688-0.37109 0.67578-0.67578 0.066406-0.15234 0.097656-0.3125 0.097656-0.47656zm-47.523 20.539 6.7109 5.9648c1.6562 1.4727 3.7344 2.2109 5.8125 2.2109s4.1562-0.73828 5.8125-2.2109l6.7109-5.9648 18.207 18.211h-61.461zm-19.977 16.441v-34.195l18.105 16.094zm46.895-18.102 18.105-16.094v34.199zm16.066-17.629-26.309 23.387c-2.3672 2.1055-5.9375 2.1055-8.3047 0l-26.309-23.387z"/>
</svg>
