<?xml version="1.0" encoding="utf-8"?>
<!-- Generator: Adobe Illustrator 24.3.0, SVG Export Plug-In . SVG Version: 6.00 Build 0)  -->
<svg version="1.1" id="Layer_1" xmlns="http://www.w3.org/2000/svg" xmlns:xlink="http://www.w3.org/1999/xlink" x="0px" y="0px"
	 viewBox="0 0 100 100" style="enable-background:new 0 0 100 100;" xml:space="preserve">
<g>
	<path d="M74.3,54.6H24.7c-1.2,0-2.2,1-2.2,2.2v27.8c0,1.2,1,2.2,2.2,2.2h49.6c1.2,0,2.2-1,2.2-2.2V56.8
		C76.5,55.6,75.5,54.6,74.3,54.6L74.3,54.6z M72.1,82.4H26.9V59h45.2L72.1,82.4L72.1,82.4z"/>
	<path d="M74.3,14.6H24.7c-1.2,0-2.2,1-2.2,2.2v27.8c0,1.2,1,2.2,2.2,2.2h49.6c1.2,0,2.2-1,2.2-2.2V16.8
		C76.5,15.6,75.5,14.6,74.3,14.6L74.3,14.6z M72.1,42.4H26.9V19h45.2L72.1,42.4L72.1,42.4z"/>
	<path d="M12.7,11.2H2.2c-1.2,0-2.2,1-2.2,2.2v10.5C0,25,1,26,2.2,26h10.5c1.2,0,2.2-1,2.2-2.2V13.4C14.9,12.2,13.9,11.2,12.7,11.2z
		 M10.5,21.6H4.4v-6.1h6.1V21.6z"/>
	<path d="M12.7,32.1H2.2c-1.2,0-2.2,1-2.2,2.2v10.5C0,46,1,47,2.2,47h10.5c1.2,0,2.2-1,2.2-2.2V34.3C14.9,33.1,13.9,32.1,12.7,32.1z
		 M10.5,42.6H4.4v-6.1h6.1V42.6z"/>
	<path d="M12.7,53.1H2.2C1,53.1,0,54,0,55.3v10.5c0,1.2,1,2.2,2.2,2.2h10.5c1.2,0,2.2-1,2.2-2.2V55.3C14.9,54,13.9,53.1,12.7,53.1z
		 M10.5,63.5H4.4v-6.1h6.1V63.5z"/>
	<path d="M12.7,74H2.2C1,74,0,75,0,76.2v10.5c0,1.2,1,2.2,2.2,2.2h10.5c1.2,0,2.2-1,2.2-2.2V76.2C14.9,75,13.9,74,12.7,74z
		 M10.5,84.5H4.4v-6.1h6.1V84.5z"/>
	<path d="M97.8,11.1H87.3c-1.2,0-2.2,1-2.2,2.2v10.5c0,1.2,1,2.2,2.2,2.2h10.5c1.2,0,2.2-1,2.2-2.2V13.3C100,12.1,99,11.1,97.8,11.1
		z M95.6,21.6h-6.1v-6.1h6.1V21.6z"/>
	<path d="M97.8,32.1H87.3c-1.2,0-2.2,1-2.2,2.2v10.5c0,1.2,1,2.2,2.2,2.2h10.5c1.2,0,2.2-1,2.2-2.2V34.3C100,33,99,32.1,97.8,32.1z
		 M95.6,42.5h-6.1v-6.1h6.1V42.5z"/>
	<path d="M97.8,53H87.3c-1.2,0-2.2,1-2.2,2.2v10.5c0,1.2,1,2.2,2.2,2.2h10.5c1.2,0,2.2-1,2.2-2.2V55.2C100,54,99,53,97.8,53z
		 M95.6,63.5h-6.1v-6.1h6.1V63.5z"/>
	<path d="M97.8,74H87.3c-1.2,0-2.2,1-2.2,2.2v10.5c0,1.2,1,2.2,2.2,2.2h10.5c1.2,0,2.2-1,2.2-2.2V76.2C100,74.9,99,74,97.8,74z
		 M95.6,84.4h-6.1v-6.1h6.1V84.4z"/>
</g>
</svg>
